<mxfile host="app.diagrams.net" modified="2024-04-23T12:12:29.475Z" agent="Mozilla/5.0 (Windows NT 10.0; Win64; x64) AppleWebKit/537.36 (KHTML, like Gecko) Chrome/124.0.0.0 Safari/537.36" etag="MbdRwUEzATYvbz6Hsg_U" version="24.2.8" type="github">
  <diagram name="Page-1" id="ff44883e-f642-bcb2-894b-16b3d25a3f0b">
    <mxGraphModel dx="5160" dy="3359" grid="1" gridSize="10" guides="1" tooltips="1" connect="1" arrows="1" fold="1" page="1" pageScale="1.5" pageWidth="1169" pageHeight="826" background="none" math="0" shadow="0">
      <root>
        <mxCell id="0" style=";html=1;" />
        <mxCell id="1" style=";html=1;" parent="0" />
        <mxCell id="J5YyEjpSM3lU3VBUV3UF-6" value="" style="group" parent="1" vertex="1" connectable="0">
          <mxGeometry x="8" y="809" width="120" height="110" as="geometry" />
        </mxCell>
        <mxCell id="J5YyEjpSM3lU3VBUV3UF-12" value="" style="group" parent="J5YyEjpSM3lU3VBUV3UF-6" vertex="1" connectable="0">
          <mxGeometry width="120" height="110" as="geometry" />
        </mxCell>
        <mxCell id="J5YyEjpSM3lU3VBUV3UF-2" value="" style="ellipse;whiteSpace=wrap;html=1;" parent="J5YyEjpSM3lU3VBUV3UF-12" vertex="1">
          <mxGeometry width="120" height="110" as="geometry" />
        </mxCell>
        <mxCell id="J5YyEjpSM3lU3VBUV3UF-3" value="" style="line;strokeWidth=2;html=1;rotation=-90;" parent="J5YyEjpSM3lU3VBUV3UF-12" vertex="1">
          <mxGeometry x="5.47" y="48.25" width="109.07" height="13.75" as="geometry" />
        </mxCell>
        <mxCell id="J5YyEjpSM3lU3VBUV3UF-4" value="" style="line;strokeWidth=2;html=1;" parent="J5YyEjpSM3lU3VBUV3UF-12" vertex="1">
          <mxGeometry x="60" y="50" width="60" height="13.75" as="geometry" />
        </mxCell>
        <mxCell id="J5YyEjpSM3lU3VBUV3UF-7" value="000" style="text;strokeColor=none;fillColor=none;html=1;align=center;verticalAlign=middle;whiteSpace=wrap;rounded=0;fontSize=16;" parent="J5YyEjpSM3lU3VBUV3UF-12" vertex="1">
          <mxGeometry x="60" y="5.0000000000000036" width="50" height="50" as="geometry" />
        </mxCell>
        <mxCell id="J5YyEjpSM3lU3VBUV3UF-9" value="000" style="text;strokeColor=none;fillColor=none;html=1;align=center;verticalAlign=middle;whiteSpace=wrap;rounded=0;fontSize=16;" parent="J5YyEjpSM3lU3VBUV3UF-12" vertex="1">
          <mxGeometry x="60" y="55" width="50" height="50" as="geometry" />
        </mxCell>
        <mxCell id="J5YyEjpSM3lU3VBUV3UF-10" value="START" style="text;strokeColor=none;fillColor=none;html=1;align=center;verticalAlign=middle;whiteSpace=wrap;rounded=0;fontSize=16;" parent="J5YyEjpSM3lU3VBUV3UF-12" vertex="1">
          <mxGeometry x="1.8799999999999955" y="31.72" width="50" height="50" as="geometry" />
        </mxCell>
        <mxCell id="vZlfEXrCbTeppOrJPky9-1" value="" style="group" parent="1" vertex="1" connectable="0">
          <mxGeometry x="358" y="487" width="120" height="110" as="geometry" />
        </mxCell>
        <mxCell id="vZlfEXrCbTeppOrJPky9-2" value="" style="group" parent="vZlfEXrCbTeppOrJPky9-1" vertex="1" connectable="0">
          <mxGeometry width="120" height="110" as="geometry" />
        </mxCell>
        <mxCell id="vZlfEXrCbTeppOrJPky9-3" value="" style="ellipse;whiteSpace=wrap;html=1;" parent="vZlfEXrCbTeppOrJPky9-2" vertex="1">
          <mxGeometry width="120" height="110" as="geometry" />
        </mxCell>
        <mxCell id="vZlfEXrCbTeppOrJPky9-4" value="" style="line;strokeWidth=2;html=1;rotation=-90;" parent="vZlfEXrCbTeppOrJPky9-2" vertex="1">
          <mxGeometry x="5.47" y="48.25" width="109.07" height="13.75" as="geometry" />
        </mxCell>
        <mxCell id="vZlfEXrCbTeppOrJPky9-5" value="" style="line;strokeWidth=2;html=1;" parent="vZlfEXrCbTeppOrJPky9-2" vertex="1">
          <mxGeometry x="60" y="50" width="60" height="13.75" as="geometry" />
        </mxCell>
        <mxCell id="vZlfEXrCbTeppOrJPky9-6" value="000" style="text;strokeColor=none;fillColor=none;html=1;align=center;verticalAlign=middle;whiteSpace=wrap;rounded=0;fontSize=16;" parent="vZlfEXrCbTeppOrJPky9-2" vertex="1">
          <mxGeometry x="60" y="5.0000000000000036" width="50" height="50" as="geometry" />
        </mxCell>
        <mxCell id="vZlfEXrCbTeppOrJPky9-7" value="000" style="text;strokeColor=none;fillColor=none;html=1;align=center;verticalAlign=middle;whiteSpace=wrap;rounded=0;fontSize=16;" parent="vZlfEXrCbTeppOrJPky9-2" vertex="1">
          <mxGeometry x="60" y="55" width="50" height="50" as="geometry" />
        </mxCell>
        <mxCell id="vZlfEXrCbTeppOrJPky9-8" value="IN01" style="text;strokeColor=none;fillColor=none;html=1;align=center;verticalAlign=middle;whiteSpace=wrap;rounded=0;fontSize=16;" parent="vZlfEXrCbTeppOrJPky9-2" vertex="1">
          <mxGeometry x="1.8799999999999955" y="31.72" width="50" height="50" as="geometry" />
        </mxCell>
        <mxCell id="vZlfEXrCbTeppOrJPky9-9" value="" style="edgeStyle=orthogonalEdgeStyle;rounded=0;orthogonalLoop=1;jettySize=auto;html=1;exitX=1;exitY=0.5;exitDx=0;exitDy=0;exitPerimeter=0;entryX=-0.045;entryY=0.499;entryDx=0;entryDy=0;entryPerimeter=0;" parent="1" source="J5YyEjpSM3lU3VBUV3UF-4" target="vZlfEXrCbTeppOrJPky9-8" edge="1">
          <mxGeometry relative="1" as="geometry">
            <Array as="points">
              <mxPoint x="128" y="544" />
            </Array>
          </mxGeometry>
        </mxCell>
        <mxCell id="vZlfEXrCbTeppOrJPky9-20" value="&lt;b data-sider-select-id=&quot;907c42dd-3fa9-418a-ba88-5756a341e914&quot;&gt;5&lt;/b&gt;" style="edgeLabel;html=1;align=center;verticalAlign=middle;resizable=0;points=[];" parent="vZlfEXrCbTeppOrJPky9-9" vertex="1" connectable="0">
          <mxGeometry x="-0.1797" relative="1" as="geometry">
            <mxPoint x="109" y="-83" as="offset" />
          </mxGeometry>
        </mxCell>
        <mxCell id="vZlfEXrCbTeppOrJPky9-21" value="&lt;b data-sider-select-id=&quot;7b996a0b-4ea2-4fc1-9395-53d7679742b2&quot;&gt;Penelitian Persyaratan&lt;/b&gt;" style="edgeLabel;html=1;align=center;verticalAlign=middle;resizable=0;points=[];shadow=1;" parent="vZlfEXrCbTeppOrJPky9-9" vertex="1" connectable="0">
          <mxGeometry x="-0.1121" relative="1" as="geometry">
            <mxPoint x="109" y="-94" as="offset" />
          </mxGeometry>
        </mxCell>
        <mxCell id="vZlfEXrCbTeppOrJPky9-10" value="" style="group" parent="1" vertex="1" connectable="0">
          <mxGeometry x="358" y="807" width="120" height="110" as="geometry" />
        </mxCell>
        <mxCell id="vZlfEXrCbTeppOrJPky9-11" value="" style="group" parent="vZlfEXrCbTeppOrJPky9-10" vertex="1" connectable="0">
          <mxGeometry width="120" height="110" as="geometry" />
        </mxCell>
        <mxCell id="vZlfEXrCbTeppOrJPky9-12" value="" style="ellipse;whiteSpace=wrap;html=1;" parent="vZlfEXrCbTeppOrJPky9-11" vertex="1">
          <mxGeometry width="120" height="110" as="geometry" />
        </mxCell>
        <mxCell id="vZlfEXrCbTeppOrJPky9-13" value="" style="line;strokeWidth=2;html=1;rotation=-90;" parent="vZlfEXrCbTeppOrJPky9-11" vertex="1">
          <mxGeometry x="5.47" y="48.25" width="109.07" height="13.75" as="geometry" />
        </mxCell>
        <mxCell id="vZlfEXrCbTeppOrJPky9-14" value="" style="line;strokeWidth=2;html=1;" parent="vZlfEXrCbTeppOrJPky9-11" vertex="1">
          <mxGeometry x="60" y="50" width="60" height="13.75" as="geometry" />
        </mxCell>
        <mxCell id="vZlfEXrCbTeppOrJPky9-15" value="000" style="text;strokeColor=none;fillColor=none;html=1;align=center;verticalAlign=middle;whiteSpace=wrap;rounded=0;fontSize=16;" parent="vZlfEXrCbTeppOrJPky9-11" vertex="1">
          <mxGeometry x="60" y="5.0000000000000036" width="50" height="50" as="geometry" />
        </mxCell>
        <mxCell id="vZlfEXrCbTeppOrJPky9-16" value="000" style="text;strokeColor=none;fillColor=none;html=1;align=center;verticalAlign=middle;whiteSpace=wrap;rounded=0;fontSize=16;" parent="vZlfEXrCbTeppOrJPky9-11" vertex="1">
          <mxGeometry x="60" y="55" width="50" height="50" as="geometry" />
        </mxCell>
        <mxCell id="vZlfEXrCbTeppOrJPky9-17" value="IN03" style="text;strokeColor=none;fillColor=none;html=1;align=center;verticalAlign=middle;whiteSpace=wrap;rounded=0;fontSize=16;" parent="vZlfEXrCbTeppOrJPky9-11" vertex="1">
          <mxGeometry x="1.8799999999999955" y="31.72" width="50" height="50" as="geometry" />
        </mxCell>
        <mxCell id="vZlfEXrCbTeppOrJPky9-22" value="" style="group" parent="1" vertex="1" connectable="0">
          <mxGeometry x="357" y="646" width="120" height="110" as="geometry" />
        </mxCell>
        <mxCell id="vZlfEXrCbTeppOrJPky9-23" value="" style="group" parent="vZlfEXrCbTeppOrJPky9-22" vertex="1" connectable="0">
          <mxGeometry width="120" height="110" as="geometry" />
        </mxCell>
        <mxCell id="vZlfEXrCbTeppOrJPky9-24" value="" style="ellipse;whiteSpace=wrap;html=1;" parent="vZlfEXrCbTeppOrJPky9-23" vertex="1">
          <mxGeometry width="120" height="110" as="geometry" />
        </mxCell>
        <mxCell id="vZlfEXrCbTeppOrJPky9-25" value="" style="line;strokeWidth=2;html=1;rotation=-90;" parent="vZlfEXrCbTeppOrJPky9-23" vertex="1">
          <mxGeometry x="5.47" y="48.25" width="109.07" height="13.75" as="geometry" />
        </mxCell>
        <mxCell id="vZlfEXrCbTeppOrJPky9-26" value="" style="line;strokeWidth=2;html=1;" parent="vZlfEXrCbTeppOrJPky9-23" vertex="1">
          <mxGeometry x="60" y="50" width="60" height="13.75" as="geometry" />
        </mxCell>
        <mxCell id="vZlfEXrCbTeppOrJPky9-27" value="000" style="text;strokeColor=none;fillColor=none;html=1;align=center;verticalAlign=middle;whiteSpace=wrap;rounded=0;fontSize=16;" parent="vZlfEXrCbTeppOrJPky9-23" vertex="1">
          <mxGeometry x="60" y="5.0000000000000036" width="50" height="50" as="geometry" />
        </mxCell>
        <mxCell id="vZlfEXrCbTeppOrJPky9-28" value="000" style="text;strokeColor=none;fillColor=none;html=1;align=center;verticalAlign=middle;whiteSpace=wrap;rounded=0;fontSize=16;" parent="vZlfEXrCbTeppOrJPky9-23" vertex="1">
          <mxGeometry x="60" y="55" width="50" height="50" as="geometry" />
        </mxCell>
        <mxCell id="vZlfEXrCbTeppOrJPky9-29" value="IN02" style="text;strokeColor=none;fillColor=none;html=1;align=center;verticalAlign=middle;whiteSpace=wrap;rounded=0;fontSize=16;" parent="vZlfEXrCbTeppOrJPky9-23" vertex="1">
          <mxGeometry x="1.8799999999999955" y="31.72" width="50" height="50" as="geometry" />
        </mxCell>
        <mxCell id="vZlfEXrCbTeppOrJPky9-30" value="" style="group" parent="1" vertex="1" connectable="0">
          <mxGeometry x="358" y="964" width="120" height="110" as="geometry" />
        </mxCell>
        <mxCell id="vZlfEXrCbTeppOrJPky9-31" value="" style="group" parent="vZlfEXrCbTeppOrJPky9-30" vertex="1" connectable="0">
          <mxGeometry width="120" height="110" as="geometry" />
        </mxCell>
        <mxCell id="vZlfEXrCbTeppOrJPky9-32" value="" style="ellipse;whiteSpace=wrap;html=1;" parent="vZlfEXrCbTeppOrJPky9-31" vertex="1">
          <mxGeometry width="120" height="110" as="geometry" />
        </mxCell>
        <mxCell id="vZlfEXrCbTeppOrJPky9-33" value="" style="line;strokeWidth=2;html=1;rotation=-90;" parent="vZlfEXrCbTeppOrJPky9-31" vertex="1">
          <mxGeometry x="5.47" y="48.25" width="109.07" height="13.75" as="geometry" />
        </mxCell>
        <mxCell id="vZlfEXrCbTeppOrJPky9-34" value="" style="line;strokeWidth=2;html=1;" parent="vZlfEXrCbTeppOrJPky9-31" vertex="1">
          <mxGeometry x="60" y="50" width="60" height="13.75" as="geometry" />
        </mxCell>
        <mxCell id="vZlfEXrCbTeppOrJPky9-35" value="000" style="text;strokeColor=none;fillColor=none;html=1;align=center;verticalAlign=middle;whiteSpace=wrap;rounded=0;fontSize=16;" parent="vZlfEXrCbTeppOrJPky9-31" vertex="1">
          <mxGeometry x="60" y="5.0000000000000036" width="50" height="50" as="geometry" />
        </mxCell>
        <mxCell id="vZlfEXrCbTeppOrJPky9-36" value="000" style="text;strokeColor=none;fillColor=none;html=1;align=center;verticalAlign=middle;whiteSpace=wrap;rounded=0;fontSize=16;" parent="vZlfEXrCbTeppOrJPky9-31" vertex="1">
          <mxGeometry x="60" y="55" width="50" height="50" as="geometry" />
        </mxCell>
        <mxCell id="vZlfEXrCbTeppOrJPky9-37" value="IN04" style="text;strokeColor=none;fillColor=none;html=1;align=center;verticalAlign=middle;whiteSpace=wrap;rounded=0;fontSize=16;" parent="vZlfEXrCbTeppOrJPky9-31" vertex="1">
          <mxGeometry x="1.8799999999999955" y="31.72" width="50" height="50" as="geometry" />
        </mxCell>
        <mxCell id="vZlfEXrCbTeppOrJPky9-38" value="" style="group" parent="1" vertex="1" connectable="0">
          <mxGeometry x="358" y="1125" width="120" height="110" as="geometry" />
        </mxCell>
        <mxCell id="vZlfEXrCbTeppOrJPky9-39" value="" style="group" parent="vZlfEXrCbTeppOrJPky9-38" vertex="1" connectable="0">
          <mxGeometry width="120" height="110" as="geometry" />
        </mxCell>
        <mxCell id="vZlfEXrCbTeppOrJPky9-40" value="" style="ellipse;whiteSpace=wrap;html=1;" parent="vZlfEXrCbTeppOrJPky9-39" vertex="1">
          <mxGeometry width="120" height="110" as="geometry" />
        </mxCell>
        <mxCell id="vZlfEXrCbTeppOrJPky9-41" value="" style="line;strokeWidth=2;html=1;rotation=-90;" parent="vZlfEXrCbTeppOrJPky9-39" vertex="1">
          <mxGeometry x="5.47" y="48.25" width="109.07" height="13.75" as="geometry" />
        </mxCell>
        <mxCell id="vZlfEXrCbTeppOrJPky9-42" value="" style="line;strokeWidth=2;html=1;" parent="vZlfEXrCbTeppOrJPky9-39" vertex="1">
          <mxGeometry x="60" y="50" width="60" height="13.75" as="geometry" />
        </mxCell>
        <mxCell id="vZlfEXrCbTeppOrJPky9-43" value="000" style="text;strokeColor=none;fillColor=none;html=1;align=center;verticalAlign=middle;whiteSpace=wrap;rounded=0;fontSize=16;" parent="vZlfEXrCbTeppOrJPky9-39" vertex="1">
          <mxGeometry x="60" y="5.0000000000000036" width="50" height="50" as="geometry" />
        </mxCell>
        <mxCell id="vZlfEXrCbTeppOrJPky9-44" value="000" style="text;strokeColor=none;fillColor=none;html=1;align=center;verticalAlign=middle;whiteSpace=wrap;rounded=0;fontSize=16;" parent="vZlfEXrCbTeppOrJPky9-39" vertex="1">
          <mxGeometry x="60" y="55" width="50" height="50" as="geometry" />
        </mxCell>
        <mxCell id="vZlfEXrCbTeppOrJPky9-45" value="IN05" style="text;strokeColor=none;fillColor=none;html=1;align=center;verticalAlign=middle;whiteSpace=wrap;rounded=0;fontSize=16;" parent="vZlfEXrCbTeppOrJPky9-39" vertex="1">
          <mxGeometry x="1.8799999999999955" y="31.72" width="50" height="50" as="geometry" />
        </mxCell>
        <mxCell id="vZlfEXrCbTeppOrJPky9-47" value="" style="edgeStyle=orthogonalEdgeStyle;rounded=0;orthogonalLoop=1;jettySize=auto;html=1;entryX=-0.008;entryY=0.528;entryDx=0;entryDy=0;entryPerimeter=0;" parent="1" source="J5YyEjpSM3lU3VBUV3UF-4" target="vZlfEXrCbTeppOrJPky9-12" edge="1">
          <mxGeometry relative="1" as="geometry">
            <mxPoint x="208" y="844.875" as="targetPoint" />
          </mxGeometry>
        </mxCell>
        <mxCell id="vZlfEXrCbTeppOrJPky9-54" value="Pengumpulan Sumber Daya" style="edgeLabel;html=1;align=center;verticalAlign=middle;resizable=0;points=[];fontStyle=1" parent="vZlfEXrCbTeppOrJPky9-47" vertex="1" connectable="0">
          <mxGeometry x="0.1774" y="-1" relative="1" as="geometry">
            <mxPoint x="-5" y="-11" as="offset" />
          </mxGeometry>
        </mxCell>
        <mxCell id="vZlfEXrCbTeppOrJPky9-55" value="3" style="edgeLabel;html=1;align=center;verticalAlign=middle;resizable=0;points=[];fontStyle=1" parent="vZlfEXrCbTeppOrJPky9-47" vertex="1" connectable="0">
          <mxGeometry x="0.2829" y="-1" relative="1" as="geometry">
            <mxPoint x="-17" y="11" as="offset" />
          </mxGeometry>
        </mxCell>
        <mxCell id="vZlfEXrCbTeppOrJPky9-49" value="" style="endArrow=classic;html=1;rounded=0;exitX=0.99;exitY=0.503;exitDx=0;exitDy=0;exitPerimeter=0;entryX=0;entryY=0.5;entryDx=0;entryDy=0;" parent="1" source="J5YyEjpSM3lU3VBUV3UF-4" target="vZlfEXrCbTeppOrJPky9-40" edge="1">
          <mxGeometry width="50" height="50" relative="1" as="geometry">
            <mxPoint x="127" y="847" as="sourcePoint" />
            <mxPoint x="177" y="867" as="targetPoint" />
            <Array as="points">
              <mxPoint x="127" y="1180" />
            </Array>
          </mxGeometry>
        </mxCell>
        <mxCell id="vZlfEXrCbTeppOrJPky9-60" value="Identifikasi Risiko" style="edgeLabel;html=1;align=center;verticalAlign=middle;resizable=0;points=[];fontStyle=1" parent="vZlfEXrCbTeppOrJPky9-49" vertex="1" connectable="0">
          <mxGeometry x="0.5941" relative="1" as="geometry">
            <mxPoint x="1" y="-10" as="offset" />
          </mxGeometry>
        </mxCell>
        <mxCell id="vZlfEXrCbTeppOrJPky9-61" value="4" style="edgeLabel;html=1;align=center;verticalAlign=middle;resizable=0;points=[];fontStyle=1" parent="vZlfEXrCbTeppOrJPky9-49" vertex="1" connectable="0">
          <mxGeometry x="0.6703" relative="1" as="geometry">
            <mxPoint x="-20" y="12" as="offset" />
          </mxGeometry>
        </mxCell>
        <mxCell id="vZlfEXrCbTeppOrJPky9-50" value="" style="endArrow=classic;html=1;rounded=0;exitX=0.995;exitY=0.517;exitDx=0;exitDy=0;exitPerimeter=0;entryX=-0.021;entryY=0.564;entryDx=0;entryDy=0;entryPerimeter=0;" parent="1" source="J5YyEjpSM3lU3VBUV3UF-4" target="vZlfEXrCbTeppOrJPky9-24" edge="1">
          <mxGeometry width="50" height="50" relative="1" as="geometry">
            <mxPoint x="127" y="847" as="sourcePoint" />
            <mxPoint x="167" y="817" as="targetPoint" />
            <Array as="points">
              <mxPoint x="177" y="847" />
              <mxPoint x="177" y="708" />
            </Array>
          </mxGeometry>
        </mxCell>
        <mxCell id="vZlfEXrCbTeppOrJPky9-52" value="&lt;b data-sider-select-id=&quot;2aaad531-f9b8-49ab-893a-69e4aa993049&quot;&gt;Analisis Kebutuhan&lt;/b&gt;" style="edgeLabel;html=1;align=center;verticalAlign=middle;resizable=0;points=[];" parent="vZlfEXrCbTeppOrJPky9-50" vertex="1" connectable="0">
          <mxGeometry x="0.4863" y="2" relative="1" as="geometry">
            <mxPoint x="-3" y="-9" as="offset" />
          </mxGeometry>
        </mxCell>
        <mxCell id="vZlfEXrCbTeppOrJPky9-53" value="&lt;b data-sider-select-id=&quot;509955d8-b384-473e-8604-aed854ef1bd4&quot;&gt;7&lt;/b&gt;" style="edgeLabel;html=1;align=center;verticalAlign=middle;resizable=0;points=[];" parent="vZlfEXrCbTeppOrJPky9-50" vertex="1" connectable="0">
          <mxGeometry x="0.594" relative="1" as="geometry">
            <mxPoint x="-23" y="9" as="offset" />
          </mxGeometry>
        </mxCell>
        <mxCell id="vZlfEXrCbTeppOrJPky9-51" value="" style="endArrow=classic;html=1;rounded=0;exitX=0.989;exitY=0.522;exitDx=0;exitDy=0;exitPerimeter=0;entryX=0;entryY=0.5;entryDx=0;entryDy=0;" parent="1" source="J5YyEjpSM3lU3VBUV3UF-4" target="vZlfEXrCbTeppOrJPky9-37" edge="1">
          <mxGeometry width="50" height="50" relative="1" as="geometry">
            <mxPoint x="117" y="867" as="sourcePoint" />
            <mxPoint x="187" y="827" as="targetPoint" />
            <Array as="points">
              <mxPoint x="177" y="887" />
              <mxPoint x="177" y="1021" />
            </Array>
          </mxGeometry>
        </mxCell>
        <mxCell id="vZlfEXrCbTeppOrJPky9-57" value="Pembuatan Anggaran" style="edgeLabel;html=1;align=center;verticalAlign=middle;resizable=0;points=[];fontStyle=1" parent="vZlfEXrCbTeppOrJPky9-51" vertex="1" connectable="0">
          <mxGeometry x="0.492" y="1" relative="1" as="geometry">
            <mxPoint x="-9" y="-8" as="offset" />
          </mxGeometry>
        </mxCell>
        <mxCell id="vZlfEXrCbTeppOrJPky9-58" value="5" style="edgeLabel;html=1;align=center;verticalAlign=middle;resizable=0;points=[];fontStyle=1" parent="vZlfEXrCbTeppOrJPky9-51" vertex="1" connectable="0">
          <mxGeometry x="0.5221" y="2" relative="1" as="geometry">
            <mxPoint x="-14" y="14" as="offset" />
          </mxGeometry>
        </mxCell>
        <mxCell id="vZlfEXrCbTeppOrJPky9-62" value="" style="group" parent="1" vertex="1" connectable="0">
          <mxGeometry x="650" y="487" width="120" height="110" as="geometry" />
        </mxCell>
        <mxCell id="vZlfEXrCbTeppOrJPky9-63" value="" style="group" parent="vZlfEXrCbTeppOrJPky9-62" vertex="1" connectable="0">
          <mxGeometry width="120" height="110" as="geometry" />
        </mxCell>
        <mxCell id="vZlfEXrCbTeppOrJPky9-64" value="" style="ellipse;whiteSpace=wrap;html=1;" parent="vZlfEXrCbTeppOrJPky9-63" vertex="1">
          <mxGeometry width="120" height="110" as="geometry" />
        </mxCell>
        <mxCell id="vZlfEXrCbTeppOrJPky9-65" value="" style="line;strokeWidth=2;html=1;rotation=-90;" parent="vZlfEXrCbTeppOrJPky9-63" vertex="1">
          <mxGeometry x="5.47" y="48.25" width="109.07" height="13.75" as="geometry" />
        </mxCell>
        <mxCell id="vZlfEXrCbTeppOrJPky9-66" value="" style="line;strokeWidth=2;html=1;" parent="vZlfEXrCbTeppOrJPky9-63" vertex="1">
          <mxGeometry x="60" y="50" width="60" height="13.75" as="geometry" />
        </mxCell>
        <mxCell id="vZlfEXrCbTeppOrJPky9-67" value="000" style="text;strokeColor=none;fillColor=none;html=1;align=center;verticalAlign=middle;whiteSpace=wrap;rounded=0;fontSize=16;" parent="vZlfEXrCbTeppOrJPky9-63" vertex="1">
          <mxGeometry x="60" y="5.0000000000000036" width="50" height="50" as="geometry" />
        </mxCell>
        <mxCell id="vZlfEXrCbTeppOrJPky9-68" value="000" style="text;strokeColor=none;fillColor=none;html=1;align=center;verticalAlign=middle;whiteSpace=wrap;rounded=0;fontSize=16;" parent="vZlfEXrCbTeppOrJPky9-63" vertex="1">
          <mxGeometry x="60" y="55" width="50" height="50" as="geometry" />
        </mxCell>
        <mxCell id="vZlfEXrCbTeppOrJPky9-69" value="DE06" style="text;strokeColor=none;fillColor=none;html=1;align=center;verticalAlign=middle;whiteSpace=wrap;rounded=0;fontSize=16;" parent="vZlfEXrCbTeppOrJPky9-63" vertex="1">
          <mxGeometry x="1.8799999999999955" y="31.72" width="50" height="50" as="geometry" />
        </mxCell>
        <mxCell id="vZlfEXrCbTeppOrJPky9-86" value="" style="group" parent="1" vertex="1" connectable="0">
          <mxGeometry x="652" y="646" width="120" height="110" as="geometry" />
        </mxCell>
        <mxCell id="vZlfEXrCbTeppOrJPky9-87" value="" style="group" parent="vZlfEXrCbTeppOrJPky9-86" vertex="1" connectable="0">
          <mxGeometry width="120" height="110" as="geometry" />
        </mxCell>
        <mxCell id="vZlfEXrCbTeppOrJPky9-88" value="" style="ellipse;whiteSpace=wrap;html=1;" parent="vZlfEXrCbTeppOrJPky9-87" vertex="1">
          <mxGeometry width="120" height="110" as="geometry" />
        </mxCell>
        <mxCell id="vZlfEXrCbTeppOrJPky9-89" value="" style="line;strokeWidth=2;html=1;rotation=-90;" parent="vZlfEXrCbTeppOrJPky9-87" vertex="1">
          <mxGeometry x="5.47" y="48.25" width="109.07" height="13.75" as="geometry" />
        </mxCell>
        <mxCell id="vZlfEXrCbTeppOrJPky9-90" value="" style="line;strokeWidth=2;html=1;" parent="vZlfEXrCbTeppOrJPky9-87" vertex="1">
          <mxGeometry x="60" y="50" width="60" height="13.75" as="geometry" />
        </mxCell>
        <mxCell id="vZlfEXrCbTeppOrJPky9-91" value="000" style="text;strokeColor=none;fillColor=none;html=1;align=center;verticalAlign=middle;whiteSpace=wrap;rounded=0;fontSize=16;" parent="vZlfEXrCbTeppOrJPky9-87" vertex="1">
          <mxGeometry x="60" y="5.0000000000000036" width="50" height="50" as="geometry" />
        </mxCell>
        <mxCell id="vZlfEXrCbTeppOrJPky9-92" value="000" style="text;strokeColor=none;fillColor=none;html=1;align=center;verticalAlign=middle;whiteSpace=wrap;rounded=0;fontSize=16;" parent="vZlfEXrCbTeppOrJPky9-87" vertex="1">
          <mxGeometry x="60" y="55" width="50" height="50" as="geometry" />
        </mxCell>
        <mxCell id="vZlfEXrCbTeppOrJPky9-93" value="DE07" style="text;strokeColor=none;fillColor=none;html=1;align=center;verticalAlign=middle;whiteSpace=wrap;rounded=0;fontSize=16;" parent="vZlfEXrCbTeppOrJPky9-87" vertex="1">
          <mxGeometry x="1.8799999999999955" y="31.72" width="50" height="50" as="geometry" />
        </mxCell>
        <mxCell id="vZlfEXrCbTeppOrJPky9-94" value="" style="group" parent="1" vertex="1" connectable="0">
          <mxGeometry x="653" y="807" width="120" height="110" as="geometry" />
        </mxCell>
        <mxCell id="vZlfEXrCbTeppOrJPky9-95" value="" style="group" parent="vZlfEXrCbTeppOrJPky9-94" vertex="1" connectable="0">
          <mxGeometry width="120" height="110" as="geometry" />
        </mxCell>
        <mxCell id="vZlfEXrCbTeppOrJPky9-96" value="" style="ellipse;whiteSpace=wrap;html=1;" parent="vZlfEXrCbTeppOrJPky9-95" vertex="1">
          <mxGeometry width="120" height="110" as="geometry" />
        </mxCell>
        <mxCell id="vZlfEXrCbTeppOrJPky9-97" value="" style="line;strokeWidth=2;html=1;rotation=-90;" parent="vZlfEXrCbTeppOrJPky9-95" vertex="1">
          <mxGeometry x="5.47" y="48.25" width="109.07" height="13.75" as="geometry" />
        </mxCell>
        <mxCell id="vZlfEXrCbTeppOrJPky9-98" value="" style="line;strokeWidth=2;html=1;" parent="vZlfEXrCbTeppOrJPky9-95" vertex="1">
          <mxGeometry x="60" y="50" width="60" height="13.75" as="geometry" />
        </mxCell>
        <mxCell id="vZlfEXrCbTeppOrJPky9-99" value="000" style="text;strokeColor=none;fillColor=none;html=1;align=center;verticalAlign=middle;whiteSpace=wrap;rounded=0;fontSize=16;" parent="vZlfEXrCbTeppOrJPky9-95" vertex="1">
          <mxGeometry x="60" y="5.0000000000000036" width="50" height="50" as="geometry" />
        </mxCell>
        <mxCell id="vZlfEXrCbTeppOrJPky9-100" value="000" style="text;strokeColor=none;fillColor=none;html=1;align=center;verticalAlign=middle;whiteSpace=wrap;rounded=0;fontSize=16;" parent="vZlfEXrCbTeppOrJPky9-95" vertex="1">
          <mxGeometry x="60" y="55" width="50" height="50" as="geometry" />
        </mxCell>
        <mxCell id="vZlfEXrCbTeppOrJPky9-101" value="DE08" style="text;strokeColor=none;fillColor=none;html=1;align=center;verticalAlign=middle;whiteSpace=wrap;rounded=0;fontSize=16;" parent="vZlfEXrCbTeppOrJPky9-95" vertex="1">
          <mxGeometry x="1.8799999999999955" y="31.72" width="50" height="50" as="geometry" />
        </mxCell>
        <mxCell id="vZlfEXrCbTeppOrJPky9-105" value="" style="endArrow=classic;html=1;rounded=0;entryX=0;entryY=0.5;entryDx=0;entryDy=0;exitX=1;exitY=0.5;exitDx=0;exitDy=0;exitPerimeter=0;" parent="1" source="vZlfEXrCbTeppOrJPky9-5" target="vZlfEXrCbTeppOrJPky9-64" edge="1">
          <mxGeometry width="50" height="50" relative="1" as="geometry">
            <mxPoint x="387" y="621.62" as="sourcePoint" />
            <mxPoint x="637" y="621.62" as="targetPoint" />
            <Array as="points">
              <mxPoint x="497" y="544" />
            </Array>
          </mxGeometry>
        </mxCell>
        <mxCell id="vZlfEXrCbTeppOrJPky9-106" value="Design Arsitektur Sistem" style="edgeLabel;html=1;align=center;verticalAlign=middle;resizable=0;points=[];fontStyle=1" parent="vZlfEXrCbTeppOrJPky9-105" vertex="1" connectable="0">
          <mxGeometry x="0.1262" y="1" relative="1" as="geometry">
            <mxPoint x="-23" y="-10" as="offset" />
          </mxGeometry>
        </mxCell>
        <mxCell id="vZlfEXrCbTeppOrJPky9-107" value="10" style="edgeLabel;html=1;align=center;verticalAlign=middle;resizable=0;points=[];fontStyle=1" parent="vZlfEXrCbTeppOrJPky9-105" vertex="1" connectable="0">
          <mxGeometry x="0.0708" relative="1" as="geometry">
            <mxPoint x="-18" y="10" as="offset" />
          </mxGeometry>
        </mxCell>
        <mxCell id="vZlfEXrCbTeppOrJPky9-109" value="" style="endArrow=classic;html=1;rounded=0;entryX=0;entryY=0.5;entryDx=0;entryDy=0;exitX=1;exitY=0.5;exitDx=0;exitDy=0;exitPerimeter=0;" parent="1" source="vZlfEXrCbTeppOrJPky9-26" target="vZlfEXrCbTeppOrJPky9-93" edge="1">
          <mxGeometry width="50" height="50" relative="1" as="geometry">
            <mxPoint x="397" y="782.62" as="sourcePoint" />
            <mxPoint x="647" y="782.62" as="targetPoint" />
            <Array as="points">
              <mxPoint x="497" y="703" />
            </Array>
          </mxGeometry>
        </mxCell>
        <mxCell id="vZlfEXrCbTeppOrJPky9-110" value="Design Antar Muka Pengguna" style="edgeLabel;html=1;align=center;verticalAlign=middle;resizable=0;points=[];fontStyle=1" parent="vZlfEXrCbTeppOrJPky9-109" vertex="1" connectable="0">
          <mxGeometry x="0.1262" y="1" relative="1" as="geometry">
            <mxPoint x="-14" y="-10" as="offset" />
          </mxGeometry>
        </mxCell>
        <mxCell id="vZlfEXrCbTeppOrJPky9-111" value="7" style="edgeLabel;html=1;align=center;verticalAlign=middle;resizable=0;points=[];fontStyle=1" parent="vZlfEXrCbTeppOrJPky9-109" vertex="1" connectable="0">
          <mxGeometry x="0.0708" relative="1" as="geometry">
            <mxPoint x="-29" y="10" as="offset" />
          </mxGeometry>
        </mxCell>
        <mxCell id="vZlfEXrCbTeppOrJPky9-118" value="" style="group" parent="1" vertex="1" connectable="0">
          <mxGeometry x="3349" y="735.5" width="120" height="110" as="geometry" />
        </mxCell>
        <mxCell id="vZlfEXrCbTeppOrJPky9-119" value="" style="group" parent="vZlfEXrCbTeppOrJPky9-118" vertex="1" connectable="0">
          <mxGeometry width="120" height="110" as="geometry" />
        </mxCell>
        <mxCell id="vZlfEXrCbTeppOrJPky9-120" value="" style="ellipse;whiteSpace=wrap;html=1;" parent="vZlfEXrCbTeppOrJPky9-119" vertex="1">
          <mxGeometry width="120" height="110" as="geometry" />
        </mxCell>
        <mxCell id="vZlfEXrCbTeppOrJPky9-121" value="" style="line;strokeWidth=2;html=1;rotation=-90;" parent="vZlfEXrCbTeppOrJPky9-119" vertex="1">
          <mxGeometry x="5.47" y="48.25" width="109.07" height="13.75" as="geometry" />
        </mxCell>
        <mxCell id="vZlfEXrCbTeppOrJPky9-122" value="" style="line;strokeWidth=2;html=1;" parent="vZlfEXrCbTeppOrJPky9-119" vertex="1">
          <mxGeometry x="60" y="50" width="60" height="13.75" as="geometry" />
        </mxCell>
        <mxCell id="vZlfEXrCbTeppOrJPky9-123" value="000" style="text;strokeColor=none;fillColor=none;html=1;align=center;verticalAlign=middle;whiteSpace=wrap;rounded=0;fontSize=16;" parent="vZlfEXrCbTeppOrJPky9-119" vertex="1">
          <mxGeometry x="60" y="5.0000000000000036" width="50" height="50" as="geometry" />
        </mxCell>
        <mxCell id="vZlfEXrCbTeppOrJPky9-124" value="000" style="text;strokeColor=none;fillColor=none;html=1;align=center;verticalAlign=middle;whiteSpace=wrap;rounded=0;fontSize=16;" parent="vZlfEXrCbTeppOrJPky9-119" vertex="1">
          <mxGeometry x="60" y="55" width="50" height="50" as="geometry" />
        </mxCell>
        <mxCell id="vZlfEXrCbTeppOrJPky9-125" value="FINISH" style="text;strokeColor=none;fillColor=none;html=1;align=center;verticalAlign=middle;whiteSpace=wrap;rounded=0;fontSize=16;" parent="vZlfEXrCbTeppOrJPky9-119" vertex="1">
          <mxGeometry x="1.8799999999999955" y="31.72" width="50" height="50" as="geometry" />
        </mxCell>
        <mxCell id="vZlfEXrCbTeppOrJPky9-126" value="" style="endArrow=none;dashed=1;html=1;rounded=0;exitX=1;exitY=0.5;exitDx=0;exitDy=0;entryX=0;entryY=0.5;entryDx=0;entryDy=0;" parent="1" source="vZlfEXrCbTeppOrJPky9-40" target="vZlfEXrCbTeppOrJPky9-101" edge="1">
          <mxGeometry width="50" height="50" relative="1" as="geometry">
            <mxPoint x="697" y="967" as="sourcePoint" />
            <mxPoint x="747" y="917" as="targetPoint" />
          </mxGeometry>
        </mxCell>
        <mxCell id="vZlfEXrCbTeppOrJPky9-127" value="" style="endArrow=none;dashed=1;html=1;rounded=0;exitX=1;exitY=0.5;exitDx=0;exitDy=0;exitPerimeter=0;entryX=0;entryY=0.5;entryDx=0;entryDy=0;" parent="1" source="vZlfEXrCbTeppOrJPky9-34" target="vZlfEXrCbTeppOrJPky9-101" edge="1">
          <mxGeometry width="50" height="50" relative="1" as="geometry">
            <mxPoint x="847" y="1027" as="sourcePoint" />
            <mxPoint x="627" y="977" as="targetPoint" />
          </mxGeometry>
        </mxCell>
        <mxCell id="vZlfEXrCbTeppOrJPky9-128" value="" style="endArrow=classic;html=1;rounded=0;entryX=0;entryY=0.5;entryDx=0;entryDy=0;exitX=1;exitY=0.5;exitDx=0;exitDy=0;exitPerimeter=0;" parent="1" source="vZlfEXrCbTeppOrJPky9-66" target="vZlfEXrCbTeppOrJPky9-133" edge="1">
          <mxGeometry width="50" height="50" relative="1" as="geometry">
            <mxPoint x="809" y="507" as="sourcePoint" />
            <mxPoint x="1065" y="547.62" as="targetPoint" />
            <Array as="points">
              <mxPoint x="817" y="310" />
            </Array>
          </mxGeometry>
        </mxCell>
        <mxCell id="vZlfEXrCbTeppOrJPky9-129" value="Penetapan Tujuan Proyek" style="edgeLabel;html=1;align=center;verticalAlign=middle;resizable=0;points=[];fontStyle=1" parent="vZlfEXrCbTeppOrJPky9-128" vertex="1" connectable="0">
          <mxGeometry x="0.1262" y="1" relative="1" as="geometry">
            <mxPoint x="74" y="-34" as="offset" />
          </mxGeometry>
        </mxCell>
        <mxCell id="vZlfEXrCbTeppOrJPky9-130" value="3" style="edgeLabel;html=1;align=center;verticalAlign=middle;resizable=0;points=[];fontStyle=1" parent="vZlfEXrCbTeppOrJPky9-128" vertex="1" connectable="0">
          <mxGeometry x="0.0708" relative="1" as="geometry">
            <mxPoint x="75" y="-15" as="offset" />
          </mxGeometry>
        </mxCell>
        <mxCell id="vZlfEXrCbTeppOrJPky9-131" value="" style="group" parent="1" vertex="1" connectable="0">
          <mxGeometry x="968" y="255" width="120" height="110" as="geometry" />
        </mxCell>
        <mxCell id="vZlfEXrCbTeppOrJPky9-132" value="" style="group" parent="vZlfEXrCbTeppOrJPky9-131" vertex="1" connectable="0">
          <mxGeometry width="120" height="110" as="geometry" />
        </mxCell>
        <mxCell id="vZlfEXrCbTeppOrJPky9-133" value="" style="ellipse;whiteSpace=wrap;html=1;" parent="vZlfEXrCbTeppOrJPky9-132" vertex="1">
          <mxGeometry width="120" height="110" as="geometry" />
        </mxCell>
        <mxCell id="vZlfEXrCbTeppOrJPky9-134" value="" style="line;strokeWidth=2;html=1;rotation=-90;" parent="vZlfEXrCbTeppOrJPky9-132" vertex="1">
          <mxGeometry x="5.47" y="48.25" width="109.07" height="13.75" as="geometry" />
        </mxCell>
        <mxCell id="vZlfEXrCbTeppOrJPky9-135" value="" style="line;strokeWidth=2;html=1;" parent="vZlfEXrCbTeppOrJPky9-132" vertex="1">
          <mxGeometry x="60" y="50" width="60" height="13.75" as="geometry" />
        </mxCell>
        <mxCell id="vZlfEXrCbTeppOrJPky9-136" value="000" style="text;strokeColor=none;fillColor=none;html=1;align=center;verticalAlign=middle;whiteSpace=wrap;rounded=0;fontSize=16;" parent="vZlfEXrCbTeppOrJPky9-132" vertex="1">
          <mxGeometry x="60" y="5.0000000000000036" width="50" height="50" as="geometry" />
        </mxCell>
        <mxCell id="vZlfEXrCbTeppOrJPky9-137" value="000" style="text;strokeColor=none;fillColor=none;html=1;align=center;verticalAlign=middle;whiteSpace=wrap;rounded=0;fontSize=16;" parent="vZlfEXrCbTeppOrJPky9-132" vertex="1">
          <mxGeometry x="60" y="55" width="50" height="50" as="geometry" />
        </mxCell>
        <mxCell id="vZlfEXrCbTeppOrJPky9-138" value="PE09" style="text;strokeColor=none;fillColor=none;html=1;align=center;verticalAlign=middle;whiteSpace=wrap;rounded=0;fontSize=16;" parent="vZlfEXrCbTeppOrJPky9-132" vertex="1">
          <mxGeometry x="1.8799999999999955" y="31.72" width="50" height="50" as="geometry" />
        </mxCell>
        <mxCell id="vZlfEXrCbTeppOrJPky9-150" value="" style="endArrow=classic;html=1;rounded=0;entryX=0;entryY=0.5;entryDx=0;entryDy=0;exitX=1;exitY=0.5;exitDx=0;exitDy=0;exitPerimeter=0;" parent="1" source="vZlfEXrCbTeppOrJPky9-66" target="vZlfEXrCbTeppOrJPky9-155" edge="1">
          <mxGeometry width="50" height="50" relative="1" as="geometry">
            <mxPoint x="1147" y="547" as="sourcePoint" />
            <mxPoint x="1364" y="567.62" as="targetPoint" />
            <Array as="points">
              <mxPoint x="817" y="428" />
            </Array>
          </mxGeometry>
        </mxCell>
        <mxCell id="vZlfEXrCbTeppOrJPky9-151" value="Pembuatan Rencana Proyek" style="edgeLabel;html=1;align=center;verticalAlign=middle;resizable=0;points=[];fontStyle=1" parent="vZlfEXrCbTeppOrJPky9-150" vertex="1" connectable="0">
          <mxGeometry x="0.1262" y="1" relative="1" as="geometry">
            <mxPoint x="39" y="-12" as="offset" />
          </mxGeometry>
        </mxCell>
        <mxCell id="vZlfEXrCbTeppOrJPky9-152" value="5" style="edgeLabel;html=1;align=center;verticalAlign=middle;resizable=0;points=[];fontStyle=1" parent="vZlfEXrCbTeppOrJPky9-150" vertex="1" connectable="0">
          <mxGeometry x="0.0708" relative="1" as="geometry">
            <mxPoint x="47" y="17" as="offset" />
          </mxGeometry>
        </mxCell>
        <mxCell id="vZlfEXrCbTeppOrJPky9-153" value="" style="group" parent="1" vertex="1" connectable="0">
          <mxGeometry x="969.01" y="373" width="120" height="110" as="geometry" />
        </mxCell>
        <mxCell id="vZlfEXrCbTeppOrJPky9-154" value="" style="group" parent="vZlfEXrCbTeppOrJPky9-153" vertex="1" connectable="0">
          <mxGeometry width="120" height="110" as="geometry" />
        </mxCell>
        <mxCell id="vZlfEXrCbTeppOrJPky9-155" value="" style="ellipse;whiteSpace=wrap;html=1;" parent="vZlfEXrCbTeppOrJPky9-154" vertex="1">
          <mxGeometry width="120" height="110" as="geometry" />
        </mxCell>
        <mxCell id="vZlfEXrCbTeppOrJPky9-156" value="" style="line;strokeWidth=2;html=1;rotation=-90;" parent="vZlfEXrCbTeppOrJPky9-154" vertex="1">
          <mxGeometry x="5.47" y="48.25" width="109.07" height="13.75" as="geometry" />
        </mxCell>
        <mxCell id="vZlfEXrCbTeppOrJPky9-157" value="" style="line;strokeWidth=2;html=1;" parent="vZlfEXrCbTeppOrJPky9-154" vertex="1">
          <mxGeometry x="60" y="50" width="60" height="13.75" as="geometry" />
        </mxCell>
        <mxCell id="vZlfEXrCbTeppOrJPky9-158" value="000" style="text;strokeColor=none;fillColor=none;html=1;align=center;verticalAlign=middle;whiteSpace=wrap;rounded=0;fontSize=16;" parent="vZlfEXrCbTeppOrJPky9-154" vertex="1">
          <mxGeometry x="60" y="5.0000000000000036" width="50" height="50" as="geometry" />
        </mxCell>
        <mxCell id="vZlfEXrCbTeppOrJPky9-159" value="000" style="text;strokeColor=none;fillColor=none;html=1;align=center;verticalAlign=middle;whiteSpace=wrap;rounded=0;fontSize=16;" parent="vZlfEXrCbTeppOrJPky9-154" vertex="1">
          <mxGeometry x="60" y="55" width="50" height="50" as="geometry" />
        </mxCell>
        <mxCell id="vZlfEXrCbTeppOrJPky9-160" value="PE10" style="text;strokeColor=none;fillColor=none;html=1;align=center;verticalAlign=middle;whiteSpace=wrap;rounded=0;fontSize=16;" parent="vZlfEXrCbTeppOrJPky9-154" vertex="1">
          <mxGeometry x="1.8799999999999955" y="31.72" width="50" height="50" as="geometry" />
        </mxCell>
        <mxCell id="vZlfEXrCbTeppOrJPky9-227" value="" style="endArrow=classic;html=1;rounded=0;entryX=0;entryY=0.5;entryDx=0;entryDy=0;exitX=1;exitY=0.5;exitDx=0;exitDy=0;exitPerimeter=0;" parent="1" source="vZlfEXrCbTeppOrJPky9-66" target="vZlfEXrCbTeppOrJPky9-232" edge="1">
          <mxGeometry width="50" height="50" relative="1" as="geometry">
            <mxPoint x="1152" y="561" as="sourcePoint" />
            <mxPoint x="1408" y="580.62" as="targetPoint" />
          </mxGeometry>
        </mxCell>
        <mxCell id="vZlfEXrCbTeppOrJPky9-228" value="Persiapan Infrastuktur" style="edgeLabel;html=1;align=center;verticalAlign=middle;resizable=0;points=[];fontStyle=1" parent="vZlfEXrCbTeppOrJPky9-227" vertex="1" connectable="0">
          <mxGeometry x="0.1262" y="1" relative="1" as="geometry">
            <mxPoint x="-20" y="-10" as="offset" />
          </mxGeometry>
        </mxCell>
        <mxCell id="vZlfEXrCbTeppOrJPky9-229" value="4" style="edgeLabel;html=1;align=center;verticalAlign=middle;resizable=0;points=[];fontStyle=1" parent="vZlfEXrCbTeppOrJPky9-227" vertex="1" connectable="0">
          <mxGeometry x="0.0708" relative="1" as="geometry">
            <mxPoint x="-12" y="10" as="offset" />
          </mxGeometry>
        </mxCell>
        <mxCell id="vZlfEXrCbTeppOrJPky9-230" value="" style="group" parent="1" vertex="1" connectable="0">
          <mxGeometry x="968" y="490" width="120" height="110" as="geometry" />
        </mxCell>
        <mxCell id="vZlfEXrCbTeppOrJPky9-231" value="" style="group" parent="vZlfEXrCbTeppOrJPky9-230" vertex="1" connectable="0">
          <mxGeometry width="120" height="110" as="geometry" />
        </mxCell>
        <mxCell id="vZlfEXrCbTeppOrJPky9-232" value="" style="ellipse;whiteSpace=wrap;html=1;" parent="vZlfEXrCbTeppOrJPky9-231" vertex="1">
          <mxGeometry width="120" height="110" as="geometry" />
        </mxCell>
        <mxCell id="vZlfEXrCbTeppOrJPky9-233" value="" style="line;strokeWidth=2;html=1;rotation=-90;" parent="vZlfEXrCbTeppOrJPky9-231" vertex="1">
          <mxGeometry x="5.47" y="48.25" width="109.07" height="13.75" as="geometry" />
        </mxCell>
        <mxCell id="vZlfEXrCbTeppOrJPky9-234" value="" style="line;strokeWidth=2;html=1;" parent="vZlfEXrCbTeppOrJPky9-231" vertex="1">
          <mxGeometry x="60" y="50" width="60" height="13.75" as="geometry" />
        </mxCell>
        <mxCell id="vZlfEXrCbTeppOrJPky9-235" value="000" style="text;strokeColor=none;fillColor=none;html=1;align=center;verticalAlign=middle;whiteSpace=wrap;rounded=0;fontSize=16;" parent="vZlfEXrCbTeppOrJPky9-231" vertex="1">
          <mxGeometry x="60" y="5.0000000000000036" width="50" height="50" as="geometry" />
        </mxCell>
        <mxCell id="vZlfEXrCbTeppOrJPky9-236" value="000" style="text;strokeColor=none;fillColor=none;html=1;align=center;verticalAlign=middle;whiteSpace=wrap;rounded=0;fontSize=16;" parent="vZlfEXrCbTeppOrJPky9-231" vertex="1">
          <mxGeometry x="60" y="55" width="50" height="50" as="geometry" />
        </mxCell>
        <mxCell id="vZlfEXrCbTeppOrJPky9-237" value="PE16" style="text;strokeColor=none;fillColor=none;html=1;align=center;verticalAlign=middle;whiteSpace=wrap;rounded=0;fontSize=16;" parent="vZlfEXrCbTeppOrJPky9-231" vertex="1">
          <mxGeometry x="1.8799999999999955" y="31.72" width="50" height="50" as="geometry" />
        </mxCell>
        <mxCell id="vZlfEXrCbTeppOrJPky9-238" value="" style="endArrow=classic;html=1;rounded=0;entryX=0;entryY=0.5;entryDx=0;entryDy=0;exitX=1;exitY=0.5;exitDx=0;exitDy=0;exitPerimeter=0;" parent="1" source="vZlfEXrCbTeppOrJPky9-66" target="vZlfEXrCbTeppOrJPky9-243" edge="1">
          <mxGeometry width="50" height="50" relative="1" as="geometry">
            <mxPoint x="1162" y="477" as="sourcePoint" />
            <mxPoint x="1418" y="496.62" as="targetPoint" />
            <Array as="points">
              <mxPoint x="817" y="662" />
            </Array>
          </mxGeometry>
        </mxCell>
        <mxCell id="vZlfEXrCbTeppOrJPky9-239" value="Pengaturan Ruang Lingkup" style="edgeLabel;html=1;align=center;verticalAlign=middle;resizable=0;points=[];fontStyle=1" parent="vZlfEXrCbTeppOrJPky9-238" vertex="1" connectable="0">
          <mxGeometry x="0.1262" y="1" relative="1" as="geometry">
            <mxPoint x="42" y="-10" as="offset" />
          </mxGeometry>
        </mxCell>
        <mxCell id="vZlfEXrCbTeppOrJPky9-240" value="4" style="edgeLabel;html=1;align=center;verticalAlign=middle;resizable=0;points=[];fontStyle=1" parent="vZlfEXrCbTeppOrJPky9-238" vertex="1" connectable="0">
          <mxGeometry x="0.0708" relative="1" as="geometry">
            <mxPoint x="37" y="10" as="offset" />
          </mxGeometry>
        </mxCell>
        <mxCell id="vZlfEXrCbTeppOrJPky9-241" value="" style="group" parent="1" vertex="1" connectable="0">
          <mxGeometry x="968" y="607" width="120" height="110" as="geometry" />
        </mxCell>
        <mxCell id="vZlfEXrCbTeppOrJPky9-242" value="" style="group" parent="vZlfEXrCbTeppOrJPky9-241" vertex="1" connectable="0">
          <mxGeometry width="120" height="110" as="geometry" />
        </mxCell>
        <mxCell id="vZlfEXrCbTeppOrJPky9-243" value="" style="ellipse;whiteSpace=wrap;html=1;" parent="vZlfEXrCbTeppOrJPky9-242" vertex="1">
          <mxGeometry width="120" height="110" as="geometry" />
        </mxCell>
        <mxCell id="vZlfEXrCbTeppOrJPky9-244" value="" style="line;strokeWidth=2;html=1;rotation=-90;" parent="vZlfEXrCbTeppOrJPky9-242" vertex="1">
          <mxGeometry x="5.47" y="48.25" width="109.07" height="13.75" as="geometry" />
        </mxCell>
        <mxCell id="vZlfEXrCbTeppOrJPky9-245" value="" style="line;strokeWidth=2;html=1;" parent="vZlfEXrCbTeppOrJPky9-242" vertex="1">
          <mxGeometry x="60" y="50" width="60" height="13.75" as="geometry" />
        </mxCell>
        <mxCell id="vZlfEXrCbTeppOrJPky9-246" value="000" style="text;strokeColor=none;fillColor=none;html=1;align=center;verticalAlign=middle;whiteSpace=wrap;rounded=0;fontSize=16;" parent="vZlfEXrCbTeppOrJPky9-242" vertex="1">
          <mxGeometry x="64" y="5.0000000000000036" width="50" height="50" as="geometry" />
        </mxCell>
        <mxCell id="vZlfEXrCbTeppOrJPky9-247" value="000" style="text;strokeColor=none;fillColor=none;html=1;align=center;verticalAlign=middle;whiteSpace=wrap;rounded=0;fontSize=16;" parent="vZlfEXrCbTeppOrJPky9-242" vertex="1">
          <mxGeometry x="60" y="55" width="50" height="50" as="geometry" />
        </mxCell>
        <mxCell id="vZlfEXrCbTeppOrJPky9-248" value="PE17" style="text;strokeColor=none;fillColor=none;html=1;align=center;verticalAlign=middle;whiteSpace=wrap;rounded=0;fontSize=16;" parent="vZlfEXrCbTeppOrJPky9-242" vertex="1">
          <mxGeometry x="1.8799999999999955" y="31.72" width="50" height="50" as="geometry" />
        </mxCell>
        <mxCell id="vZlfEXrCbTeppOrJPky9-249" value="" style="endArrow=classic;html=1;rounded=0;entryX=0;entryY=0.5;entryDx=0;entryDy=0;exitX=1;exitY=0.5;exitDx=0;exitDy=0;exitPerimeter=0;" parent="1" source="vZlfEXrCbTeppOrJPky9-66" target="vZlfEXrCbTeppOrJPky9-254" edge="1">
          <mxGeometry width="50" height="50" relative="1" as="geometry">
            <mxPoint x="1172" y="357" as="sourcePoint" />
            <mxPoint x="1428" y="376.6199999999999" as="targetPoint" />
            <Array as="points">
              <mxPoint x="817" y="778" />
            </Array>
          </mxGeometry>
        </mxCell>
        <mxCell id="vZlfEXrCbTeppOrJPky9-250" value="Penetapan Metrik Proyek" style="edgeLabel;html=1;align=center;verticalAlign=middle;resizable=0;points=[];fontStyle=1" parent="vZlfEXrCbTeppOrJPky9-249" vertex="1" connectable="0">
          <mxGeometry x="0.1262" y="1" relative="1" as="geometry">
            <mxPoint x="73" y="7" as="offset" />
          </mxGeometry>
        </mxCell>
        <mxCell id="vZlfEXrCbTeppOrJPky9-251" value="6" style="edgeLabel;html=1;align=center;verticalAlign=middle;resizable=0;points=[];fontStyle=1" parent="vZlfEXrCbTeppOrJPky9-249" vertex="1" connectable="0">
          <mxGeometry x="0.0708" relative="1" as="geometry">
            <mxPoint x="76" y="36" as="offset" />
          </mxGeometry>
        </mxCell>
        <mxCell id="vZlfEXrCbTeppOrJPky9-252" value="" style="group" parent="1" vertex="1" connectable="0">
          <mxGeometry x="968" y="723" width="120" height="110" as="geometry" />
        </mxCell>
        <mxCell id="vZlfEXrCbTeppOrJPky9-253" value="" style="group" parent="vZlfEXrCbTeppOrJPky9-252" vertex="1" connectable="0">
          <mxGeometry width="120" height="110" as="geometry" />
        </mxCell>
        <mxCell id="vZlfEXrCbTeppOrJPky9-254" value="" style="ellipse;whiteSpace=wrap;html=1;" parent="vZlfEXrCbTeppOrJPky9-253" vertex="1">
          <mxGeometry width="120" height="110" as="geometry" />
        </mxCell>
        <mxCell id="vZlfEXrCbTeppOrJPky9-255" value="" style="line;strokeWidth=2;html=1;rotation=-90;" parent="vZlfEXrCbTeppOrJPky9-253" vertex="1">
          <mxGeometry x="5.47" y="48.25" width="109.07" height="13.75" as="geometry" />
        </mxCell>
        <mxCell id="vZlfEXrCbTeppOrJPky9-256" value="" style="line;strokeWidth=2;html=1;" parent="vZlfEXrCbTeppOrJPky9-253" vertex="1">
          <mxGeometry x="60" y="50" width="60" height="13.75" as="geometry" />
        </mxCell>
        <mxCell id="vZlfEXrCbTeppOrJPky9-257" value="000" style="text;strokeColor=none;fillColor=none;html=1;align=center;verticalAlign=middle;whiteSpace=wrap;rounded=0;fontSize=16;" parent="vZlfEXrCbTeppOrJPky9-253" vertex="1">
          <mxGeometry x="60" y="5.0000000000000036" width="50" height="50" as="geometry" />
        </mxCell>
        <mxCell id="vZlfEXrCbTeppOrJPky9-258" value="000" style="text;strokeColor=none;fillColor=none;html=1;align=center;verticalAlign=middle;whiteSpace=wrap;rounded=0;fontSize=16;" parent="vZlfEXrCbTeppOrJPky9-253" vertex="1">
          <mxGeometry x="60" y="55" width="50" height="50" as="geometry" />
        </mxCell>
        <mxCell id="vZlfEXrCbTeppOrJPky9-259" value="PE18" style="text;strokeColor=none;fillColor=none;html=1;align=center;verticalAlign=middle;whiteSpace=wrap;rounded=0;fontSize=16;" parent="vZlfEXrCbTeppOrJPky9-253" vertex="1">
          <mxGeometry x="1.8799999999999955" y="31.72" width="50" height="50" as="geometry" />
        </mxCell>
        <mxCell id="vZlfEXrCbTeppOrJPky9-260" value="" style="endArrow=classic;html=1;rounded=0;entryX=0;entryY=0.5;entryDx=0;entryDy=0;exitX=1;exitY=0.5;exitDx=0;exitDy=0;exitPerimeter=0;" parent="1" source="vZlfEXrCbTeppOrJPky9-344" target="vZlfEXrCbTeppOrJPky9-265" edge="1">
          <mxGeometry width="50" height="50" relative="1" as="geometry">
            <mxPoint x="1700" y="266" as="sourcePoint" />
            <mxPoint x="1956" y="285.62" as="targetPoint" />
            <Array as="points">
              <mxPoint x="1953" y="89" />
            </Array>
          </mxGeometry>
        </mxCell>
        <mxCell id="vZlfEXrCbTeppOrJPky9-261" value="Persiapan Rencana Manajemen Perubahan" style="edgeLabel;html=1;align=center;verticalAlign=middle;resizable=0;points=[];fontStyle=1" parent="vZlfEXrCbTeppOrJPky9-260" vertex="1" connectable="0">
          <mxGeometry x="0.1262" y="1" relative="1" as="geometry">
            <mxPoint x="54" y="-10" as="offset" />
          </mxGeometry>
        </mxCell>
        <mxCell id="vZlfEXrCbTeppOrJPky9-262" value="5" style="edgeLabel;html=1;align=center;verticalAlign=middle;resizable=0;points=[];fontStyle=1" parent="vZlfEXrCbTeppOrJPky9-260" vertex="1" connectable="0">
          <mxGeometry x="0.0708" relative="1" as="geometry">
            <mxPoint x="67" y="10" as="offset" />
          </mxGeometry>
        </mxCell>
        <mxCell id="vZlfEXrCbTeppOrJPky9-263" value="" style="group" parent="1" vertex="1" connectable="0">
          <mxGeometry x="2192" y="34" width="120" height="110" as="geometry" />
        </mxCell>
        <mxCell id="vZlfEXrCbTeppOrJPky9-264" value="" style="group" parent="vZlfEXrCbTeppOrJPky9-263" vertex="1" connectable="0">
          <mxGeometry width="120" height="110" as="geometry" />
        </mxCell>
        <mxCell id="vZlfEXrCbTeppOrJPky9-265" value="" style="ellipse;whiteSpace=wrap;html=1;" parent="vZlfEXrCbTeppOrJPky9-264" vertex="1">
          <mxGeometry width="120" height="110" as="geometry" />
        </mxCell>
        <mxCell id="vZlfEXrCbTeppOrJPky9-266" value="" style="line;strokeWidth=2;html=1;rotation=-90;" parent="vZlfEXrCbTeppOrJPky9-264" vertex="1">
          <mxGeometry x="5.47" y="48.25" width="109.07" height="13.75" as="geometry" />
        </mxCell>
        <mxCell id="vZlfEXrCbTeppOrJPky9-267" value="" style="line;strokeWidth=2;html=1;" parent="vZlfEXrCbTeppOrJPky9-264" vertex="1">
          <mxGeometry x="60" y="50" width="60" height="13.75" as="geometry" />
        </mxCell>
        <mxCell id="vZlfEXrCbTeppOrJPky9-268" value="000" style="text;strokeColor=none;fillColor=none;html=1;align=center;verticalAlign=middle;whiteSpace=wrap;rounded=0;fontSize=16;" parent="vZlfEXrCbTeppOrJPky9-264" vertex="1">
          <mxGeometry x="60" y="5.0000000000000036" width="50" height="50" as="geometry" />
        </mxCell>
        <mxCell id="vZlfEXrCbTeppOrJPky9-269" value="000" style="text;strokeColor=none;fillColor=none;html=1;align=center;verticalAlign=middle;whiteSpace=wrap;rounded=0;fontSize=16;" parent="vZlfEXrCbTeppOrJPky9-264" vertex="1">
          <mxGeometry x="60" y="55" width="50" height="50" as="geometry" />
        </mxCell>
        <mxCell id="vZlfEXrCbTeppOrJPky9-270" value="PE28" style="text;strokeColor=none;fillColor=none;html=1;align=center;verticalAlign=middle;whiteSpace=wrap;rounded=0;fontSize=16;" parent="vZlfEXrCbTeppOrJPky9-264" vertex="1">
          <mxGeometry x="1.8799999999999955" y="31.72" width="50" height="50" as="geometry" />
        </mxCell>
        <mxCell id="vZlfEXrCbTeppOrJPky9-271" value="" style="endArrow=classic;html=1;rounded=0;entryX=0;entryY=0.5;entryDx=0;entryDy=0;exitX=1;exitY=0.5;exitDx=0;exitDy=0;exitPerimeter=0;" parent="1" source="vZlfEXrCbTeppOrJPky9-300" target="vZlfEXrCbTeppOrJPky9-276" edge="1">
          <mxGeometry width="50" height="50" relative="1" as="geometry">
            <mxPoint x="1747" y="1079" as="sourcePoint" />
            <mxPoint x="2003" y="1098.62" as="targetPoint" />
            <Array as="points">
              <mxPoint x="1497" y="785" />
            </Array>
          </mxGeometry>
        </mxCell>
        <mxCell id="vZlfEXrCbTeppOrJPky9-272" value="Persiapan Rencana Kualitas" style="edgeLabel;html=1;align=center;verticalAlign=middle;resizable=0;points=[];fontStyle=1" parent="vZlfEXrCbTeppOrJPky9-271" vertex="1" connectable="0">
          <mxGeometry x="0.1262" y="1" relative="1" as="geometry">
            <mxPoint x="84" y="-10" as="offset" />
          </mxGeometry>
        </mxCell>
        <mxCell id="vZlfEXrCbTeppOrJPky9-273" value="6" style="edgeLabel;html=1;align=center;verticalAlign=middle;resizable=0;points=[];fontStyle=1" parent="vZlfEXrCbTeppOrJPky9-271" vertex="1" connectable="0">
          <mxGeometry x="0.0708" relative="1" as="geometry">
            <mxPoint x="89" y="10" as="offset" />
          </mxGeometry>
        </mxCell>
        <mxCell id="vZlfEXrCbTeppOrJPky9-274" value="" style="group" parent="1" vertex="1" connectable="0">
          <mxGeometry x="1797" y="730" width="120" height="110" as="geometry" />
        </mxCell>
        <mxCell id="vZlfEXrCbTeppOrJPky9-275" value="" style="group" parent="vZlfEXrCbTeppOrJPky9-274" vertex="1" connectable="0">
          <mxGeometry width="120" height="110" as="geometry" />
        </mxCell>
        <mxCell id="vZlfEXrCbTeppOrJPky9-276" value="" style="ellipse;whiteSpace=wrap;html=1;" parent="vZlfEXrCbTeppOrJPky9-275" vertex="1">
          <mxGeometry width="120" height="110" as="geometry" />
        </mxCell>
        <mxCell id="vZlfEXrCbTeppOrJPky9-277" value="" style="line;strokeWidth=2;html=1;rotation=-90;" parent="vZlfEXrCbTeppOrJPky9-275" vertex="1">
          <mxGeometry x="5.47" y="48.25" width="109.07" height="13.75" as="geometry" />
        </mxCell>
        <mxCell id="vZlfEXrCbTeppOrJPky9-278" value="" style="line;strokeWidth=2;html=1;" parent="vZlfEXrCbTeppOrJPky9-275" vertex="1">
          <mxGeometry x="60" y="50" width="60" height="13.75" as="geometry" />
        </mxCell>
        <mxCell id="vZlfEXrCbTeppOrJPky9-279" value="000" style="text;strokeColor=none;fillColor=none;html=1;align=center;verticalAlign=middle;whiteSpace=wrap;rounded=0;fontSize=16;" parent="vZlfEXrCbTeppOrJPky9-275" vertex="1">
          <mxGeometry x="60" y="5.0000000000000036" width="50" height="50" as="geometry" />
        </mxCell>
        <mxCell id="vZlfEXrCbTeppOrJPky9-280" value="000" style="text;strokeColor=none;fillColor=none;html=1;align=center;verticalAlign=middle;whiteSpace=wrap;rounded=0;fontSize=16;" parent="vZlfEXrCbTeppOrJPky9-275" vertex="1">
          <mxGeometry x="60" y="55" width="50" height="50" as="geometry" />
        </mxCell>
        <mxCell id="vZlfEXrCbTeppOrJPky9-281" value="PE27" style="text;strokeColor=none;fillColor=none;html=1;align=center;verticalAlign=middle;whiteSpace=wrap;rounded=0;fontSize=16;" parent="vZlfEXrCbTeppOrJPky9-275" vertex="1">
          <mxGeometry x="1.8799999999999955" y="31.72" width="50" height="50" as="geometry" />
        </mxCell>
        <mxCell id="vZlfEXrCbTeppOrJPky9-282" value="" style="endArrow=classic;html=1;rounded=0;entryX=0;entryY=0.5;entryDx=0;entryDy=0;exitX=1;exitY=0.5;exitDx=0;exitDy=0;exitPerimeter=0;" parent="1" source="vZlfEXrCbTeppOrJPky9-672" target="vZlfEXrCbTeppOrJPky9-287" edge="1">
          <mxGeometry width="50" height="50" relative="1" as="geometry">
            <mxPoint x="1341" y="896" as="sourcePoint" />
            <mxPoint x="1597" y="915.62" as="targetPoint" />
          </mxGeometry>
        </mxCell>
        <mxCell id="vZlfEXrCbTeppOrJPky9-283" value="Persiapan Dokumen&lt;div&gt;Persetujuan&lt;/div&gt;" style="edgeLabel;html=1;align=center;verticalAlign=middle;resizable=0;points=[];fontStyle=1" parent="vZlfEXrCbTeppOrJPky9-282" vertex="1" connectable="0">
          <mxGeometry x="0.1262" y="1" relative="1" as="geometry">
            <mxPoint x="-10" y="-21" as="offset" />
          </mxGeometry>
        </mxCell>
        <mxCell id="vZlfEXrCbTeppOrJPky9-284" value="8" style="edgeLabel;html=1;align=center;verticalAlign=middle;resizable=0;points=[];fontStyle=1" parent="vZlfEXrCbTeppOrJPky9-282" vertex="1" connectable="0">
          <mxGeometry x="0.0708" relative="1" as="geometry">
            <mxPoint x="-12" y="10" as="offset" />
          </mxGeometry>
        </mxCell>
        <mxCell id="vZlfEXrCbTeppOrJPky9-285" value="" style="group" parent="1" vertex="1" connectable="0">
          <mxGeometry x="1523" y="841" width="120" height="110" as="geometry" />
        </mxCell>
        <mxCell id="vZlfEXrCbTeppOrJPky9-286" value="" style="group" parent="vZlfEXrCbTeppOrJPky9-285" vertex="1" connectable="0">
          <mxGeometry width="120" height="110" as="geometry" />
        </mxCell>
        <mxCell id="vZlfEXrCbTeppOrJPky9-287" value="" style="ellipse;whiteSpace=wrap;html=1;" parent="vZlfEXrCbTeppOrJPky9-286" vertex="1">
          <mxGeometry width="120" height="110" as="geometry" />
        </mxCell>
        <mxCell id="vZlfEXrCbTeppOrJPky9-288" value="" style="line;strokeWidth=2;html=1;rotation=-90;" parent="vZlfEXrCbTeppOrJPky9-286" vertex="1">
          <mxGeometry x="5.47" y="48.25" width="109.07" height="13.75" as="geometry" />
        </mxCell>
        <mxCell id="vZlfEXrCbTeppOrJPky9-289" value="" style="line;strokeWidth=2;html=1;" parent="vZlfEXrCbTeppOrJPky9-286" vertex="1">
          <mxGeometry x="60" y="50" width="60" height="13.75" as="geometry" />
        </mxCell>
        <mxCell id="vZlfEXrCbTeppOrJPky9-290" value="000" style="text;strokeColor=none;fillColor=none;html=1;align=center;verticalAlign=middle;whiteSpace=wrap;rounded=0;fontSize=16;" parent="vZlfEXrCbTeppOrJPky9-286" vertex="1">
          <mxGeometry x="60" y="5.0000000000000036" width="50" height="50" as="geometry" />
        </mxCell>
        <mxCell id="vZlfEXrCbTeppOrJPky9-291" value="000" style="text;strokeColor=none;fillColor=none;html=1;align=center;verticalAlign=middle;whiteSpace=wrap;rounded=0;fontSize=16;" parent="vZlfEXrCbTeppOrJPky9-286" vertex="1">
          <mxGeometry x="60" y="55" width="50" height="50" as="geometry" />
        </mxCell>
        <mxCell id="vZlfEXrCbTeppOrJPky9-292" value="PE26" style="text;strokeColor=none;fillColor=none;html=1;align=center;verticalAlign=middle;whiteSpace=wrap;rounded=0;fontSize=16;" parent="vZlfEXrCbTeppOrJPky9-286" vertex="1">
          <mxGeometry x="1.8799999999999955" y="31.72" width="50" height="50" as="geometry" />
        </mxCell>
        <mxCell id="vZlfEXrCbTeppOrJPky9-293" value="" style="endArrow=classic;html=1;rounded=0;entryX=0;entryY=0.5;entryDx=0;entryDy=0;exitX=1;exitY=0.5;exitDx=0;exitDy=0;exitPerimeter=0;" parent="1" source="vZlfEXrCbTeppOrJPky9-234" target="vZlfEXrCbTeppOrJPky9-298" edge="1">
          <mxGeometry width="50" height="50" relative="1" as="geometry">
            <mxPoint x="1005" y="547" as="sourcePoint" />
            <mxPoint x="1261" y="566.62" as="targetPoint" />
          </mxGeometry>
        </mxCell>
        <mxCell id="vZlfEXrCbTeppOrJPky9-294" value="Persiapan Rencana Pengadaan" style="edgeLabel;html=1;align=center;verticalAlign=middle;resizable=0;points=[];fontStyle=1" parent="vZlfEXrCbTeppOrJPky9-293" vertex="1" connectable="0">
          <mxGeometry x="0.1262" y="1" relative="1" as="geometry">
            <mxPoint x="-20" y="-10" as="offset" />
          </mxGeometry>
        </mxCell>
        <mxCell id="vZlfEXrCbTeppOrJPky9-295" value="7" style="edgeLabel;html=1;align=center;verticalAlign=middle;resizable=0;points=[];fontStyle=1" parent="vZlfEXrCbTeppOrJPky9-293" vertex="1" connectable="0">
          <mxGeometry x="0.0708" relative="1" as="geometry">
            <mxPoint x="-12" y="10" as="offset" />
          </mxGeometry>
        </mxCell>
        <mxCell id="vZlfEXrCbTeppOrJPky9-296" value="" style="group" parent="1" vertex="1" connectable="0">
          <mxGeometry x="1275" y="492" width="120" height="110" as="geometry" />
        </mxCell>
        <mxCell id="vZlfEXrCbTeppOrJPky9-297" value="" style="group" parent="vZlfEXrCbTeppOrJPky9-296" vertex="1" connectable="0">
          <mxGeometry width="120" height="110" as="geometry" />
        </mxCell>
        <mxCell id="vZlfEXrCbTeppOrJPky9-298" value="" style="ellipse;whiteSpace=wrap;html=1;" parent="vZlfEXrCbTeppOrJPky9-297" vertex="1">
          <mxGeometry width="120" height="110" as="geometry" />
        </mxCell>
        <mxCell id="vZlfEXrCbTeppOrJPky9-299" value="" style="line;strokeWidth=2;html=1;rotation=-90;" parent="vZlfEXrCbTeppOrJPky9-297" vertex="1">
          <mxGeometry x="5.47" y="48.25" width="109.07" height="13.75" as="geometry" />
        </mxCell>
        <mxCell id="vZlfEXrCbTeppOrJPky9-300" value="" style="line;strokeWidth=2;html=1;" parent="vZlfEXrCbTeppOrJPky9-297" vertex="1">
          <mxGeometry x="60" y="50" width="60" height="13.75" as="geometry" />
        </mxCell>
        <mxCell id="vZlfEXrCbTeppOrJPky9-301" value="000" style="text;strokeColor=none;fillColor=none;html=1;align=center;verticalAlign=middle;whiteSpace=wrap;rounded=0;fontSize=16;" parent="vZlfEXrCbTeppOrJPky9-297" vertex="1">
          <mxGeometry x="60" y="5.0000000000000036" width="50" height="50" as="geometry" />
        </mxCell>
        <mxCell id="vZlfEXrCbTeppOrJPky9-302" value="000" style="text;strokeColor=none;fillColor=none;html=1;align=center;verticalAlign=middle;whiteSpace=wrap;rounded=0;fontSize=16;" parent="vZlfEXrCbTeppOrJPky9-297" vertex="1">
          <mxGeometry x="60" y="55" width="50" height="50" as="geometry" />
        </mxCell>
        <mxCell id="vZlfEXrCbTeppOrJPky9-303" value="PE25" style="text;strokeColor=none;fillColor=none;html=1;align=center;verticalAlign=middle;whiteSpace=wrap;rounded=0;fontSize=16;" parent="vZlfEXrCbTeppOrJPky9-297" vertex="1">
          <mxGeometry x="1.8799999999999955" y="31.72" width="50" height="50" as="geometry" />
        </mxCell>
        <mxCell id="vZlfEXrCbTeppOrJPky9-304" value="" style="endArrow=classic;html=1;rounded=0;entryX=0;entryY=0.5;entryDx=0;entryDy=0;exitX=1;exitY=0.5;exitDx=0;exitDy=0;exitPerimeter=0;" parent="1" source="vZlfEXrCbTeppOrJPky9-300" target="vZlfEXrCbTeppOrJPky9-309" edge="1">
          <mxGeometry width="50" height="50" relative="1" as="geometry">
            <mxPoint x="1754" y="719" as="sourcePoint" />
            <mxPoint x="2010" y="738.62" as="targetPoint" />
            <Array as="points">
              <mxPoint x="1497" y="664" />
            </Array>
          </mxGeometry>
        </mxCell>
        <mxCell id="vZlfEXrCbTeppOrJPky9-305" value="Persiapan Rencana Komunikasi" style="edgeLabel;html=1;align=center;verticalAlign=middle;resizable=0;points=[];fontStyle=1" parent="vZlfEXrCbTeppOrJPky9-304" vertex="1" connectable="0">
          <mxGeometry x="0.1262" y="1" relative="1" as="geometry">
            <mxPoint x="37" y="-10" as="offset" />
          </mxGeometry>
        </mxCell>
        <mxCell id="vZlfEXrCbTeppOrJPky9-306" value="6" style="edgeLabel;html=1;align=center;verticalAlign=middle;resizable=0;points=[];fontStyle=1" parent="vZlfEXrCbTeppOrJPky9-304" vertex="1" connectable="0">
          <mxGeometry x="0.0708" relative="1" as="geometry">
            <mxPoint x="40" y="10" as="offset" />
          </mxGeometry>
        </mxCell>
        <mxCell id="vZlfEXrCbTeppOrJPky9-307" value="" style="group" parent="1" vertex="1" connectable="0">
          <mxGeometry x="1798" y="611" width="120" height="110" as="geometry" />
        </mxCell>
        <mxCell id="vZlfEXrCbTeppOrJPky9-308" value="" style="group" parent="vZlfEXrCbTeppOrJPky9-307" vertex="1" connectable="0">
          <mxGeometry width="120" height="110" as="geometry" />
        </mxCell>
        <mxCell id="vZlfEXrCbTeppOrJPky9-309" value="" style="ellipse;whiteSpace=wrap;html=1;" parent="vZlfEXrCbTeppOrJPky9-308" vertex="1">
          <mxGeometry width="120" height="110" as="geometry" />
        </mxCell>
        <mxCell id="vZlfEXrCbTeppOrJPky9-310" value="" style="line;strokeWidth=2;html=1;rotation=-90;" parent="vZlfEXrCbTeppOrJPky9-308" vertex="1">
          <mxGeometry x="5.47" y="48.25" width="109.07" height="13.75" as="geometry" />
        </mxCell>
        <mxCell id="vZlfEXrCbTeppOrJPky9-311" value="" style="line;strokeWidth=2;html=1;" parent="vZlfEXrCbTeppOrJPky9-308" vertex="1">
          <mxGeometry x="60" y="50" width="60" height="13.75" as="geometry" />
        </mxCell>
        <mxCell id="vZlfEXrCbTeppOrJPky9-312" value="000" style="text;strokeColor=none;fillColor=none;html=1;align=center;verticalAlign=middle;whiteSpace=wrap;rounded=0;fontSize=16;" parent="vZlfEXrCbTeppOrJPky9-308" vertex="1">
          <mxGeometry x="60" y="5.0000000000000036" width="50" height="50" as="geometry" />
        </mxCell>
        <mxCell id="vZlfEXrCbTeppOrJPky9-313" value="000" style="text;strokeColor=none;fillColor=none;html=1;align=center;verticalAlign=middle;whiteSpace=wrap;rounded=0;fontSize=16;" parent="vZlfEXrCbTeppOrJPky9-308" vertex="1">
          <mxGeometry x="60" y="55" width="50" height="50" as="geometry" />
        </mxCell>
        <mxCell id="vZlfEXrCbTeppOrJPky9-314" value="PE24" style="text;strokeColor=none;fillColor=none;html=1;align=center;verticalAlign=middle;whiteSpace=wrap;rounded=0;fontSize=16;" parent="vZlfEXrCbTeppOrJPky9-308" vertex="1">
          <mxGeometry x="1.8799999999999955" y="31.72" width="50" height="50" as="geometry" />
        </mxCell>
        <mxCell id="vZlfEXrCbTeppOrJPky9-315" value="" style="endArrow=classic;html=1;rounded=0;entryX=0;entryY=0.5;entryDx=0;entryDy=0;exitX=1;exitY=0.5;exitDx=0;exitDy=0;exitPerimeter=0;" parent="1" source="vZlfEXrCbTeppOrJPky9-300" target="vZlfEXrCbTeppOrJPky9-320" edge="1">
          <mxGeometry width="50" height="50" relative="1" as="geometry">
            <mxPoint x="1764" y="599" as="sourcePoint" />
            <mxPoint x="2020" y="618.62" as="targetPoint" />
          </mxGeometry>
        </mxCell>
        <mxCell id="vZlfEXrCbTeppOrJPky9-316" value="Persiapan Dokumen Inisiasi" style="edgeLabel;html=1;align=center;verticalAlign=middle;resizable=0;points=[];fontStyle=1" parent="vZlfEXrCbTeppOrJPky9-315" vertex="1" connectable="0">
          <mxGeometry x="0.1262" y="1" relative="1" as="geometry">
            <mxPoint x="5" y="-10" as="offset" />
          </mxGeometry>
        </mxCell>
        <mxCell id="vZlfEXrCbTeppOrJPky9-317" value="5" style="edgeLabel;html=1;align=center;verticalAlign=middle;resizable=0;points=[];fontStyle=1" parent="vZlfEXrCbTeppOrJPky9-315" vertex="1" connectable="0">
          <mxGeometry x="0.0708" relative="1" as="geometry">
            <mxPoint x="16" y="10" as="offset" />
          </mxGeometry>
        </mxCell>
        <mxCell id="vZlfEXrCbTeppOrJPky9-318" value="" style="group" parent="1" vertex="1" connectable="0">
          <mxGeometry x="1798" y="493" width="120" height="110" as="geometry" />
        </mxCell>
        <mxCell id="vZlfEXrCbTeppOrJPky9-319" value="" style="group" parent="vZlfEXrCbTeppOrJPky9-318" vertex="1" connectable="0">
          <mxGeometry width="120" height="110" as="geometry" />
        </mxCell>
        <mxCell id="vZlfEXrCbTeppOrJPky9-320" value="" style="ellipse;whiteSpace=wrap;html=1;" parent="vZlfEXrCbTeppOrJPky9-319" vertex="1">
          <mxGeometry width="120" height="110" as="geometry" />
        </mxCell>
        <mxCell id="vZlfEXrCbTeppOrJPky9-321" value="" style="line;strokeWidth=2;html=1;rotation=-90;" parent="vZlfEXrCbTeppOrJPky9-319" vertex="1">
          <mxGeometry x="5.47" y="48.25" width="109.07" height="13.75" as="geometry" />
        </mxCell>
        <mxCell id="vZlfEXrCbTeppOrJPky9-322" value="" style="line;strokeWidth=2;html=1;" parent="vZlfEXrCbTeppOrJPky9-319" vertex="1">
          <mxGeometry x="60" y="50" width="60" height="13.75" as="geometry" />
        </mxCell>
        <mxCell id="vZlfEXrCbTeppOrJPky9-323" value="000" style="text;strokeColor=none;fillColor=none;html=1;align=center;verticalAlign=middle;whiteSpace=wrap;rounded=0;fontSize=16;" parent="vZlfEXrCbTeppOrJPky9-319" vertex="1">
          <mxGeometry x="60" y="5.0000000000000036" width="50" height="50" as="geometry" />
        </mxCell>
        <mxCell id="vZlfEXrCbTeppOrJPky9-324" value="000" style="text;strokeColor=none;fillColor=none;html=1;align=center;verticalAlign=middle;whiteSpace=wrap;rounded=0;fontSize=16;" parent="vZlfEXrCbTeppOrJPky9-319" vertex="1">
          <mxGeometry x="60" y="55" width="50" height="50" as="geometry" />
        </mxCell>
        <mxCell id="vZlfEXrCbTeppOrJPky9-325" value="PE23" style="text;strokeColor=none;fillColor=none;html=1;align=center;verticalAlign=middle;whiteSpace=wrap;rounded=0;fontSize=16;" parent="vZlfEXrCbTeppOrJPky9-319" vertex="1">
          <mxGeometry x="1.8799999999999955" y="31.72" width="50" height="50" as="geometry" />
        </mxCell>
        <mxCell id="vZlfEXrCbTeppOrJPky9-326" value="" style="endArrow=classic;html=1;rounded=0;entryX=0;entryY=0.5;entryDx=0;entryDy=0;exitX=1;exitY=0.5;exitDx=0;exitDy=0;exitPerimeter=0;" parent="1" source="vZlfEXrCbTeppOrJPky9-344" target="vZlfEXrCbTeppOrJPky9-331" edge="1">
          <mxGeometry width="50" height="50" relative="1" as="geometry">
            <mxPoint x="1550" y="616.875" as="sourcePoint" />
            <mxPoint x="1959" y="632.62" as="targetPoint" />
            <Array as="points">
              <mxPoint x="1947" y="451" />
            </Array>
          </mxGeometry>
        </mxCell>
        <mxCell id="vZlfEXrCbTeppOrJPky9-327" value="Pembuatan Presentasi Proyek" style="edgeLabel;html=1;align=center;verticalAlign=middle;resizable=0;points=[];fontStyle=1" parent="vZlfEXrCbTeppOrJPky9-326" vertex="1" connectable="0">
          <mxGeometry x="0.1262" y="1" relative="1" as="geometry">
            <mxPoint x="59" y="-19" as="offset" />
          </mxGeometry>
        </mxCell>
        <mxCell id="vZlfEXrCbTeppOrJPky9-328" value="4" style="edgeLabel;html=1;align=center;verticalAlign=middle;resizable=0;points=[];fontStyle=1" parent="vZlfEXrCbTeppOrJPky9-326" vertex="1" connectable="0">
          <mxGeometry x="0.0708" relative="1" as="geometry">
            <mxPoint x="81" y="20" as="offset" />
          </mxGeometry>
        </mxCell>
        <mxCell id="vZlfEXrCbTeppOrJPky9-329" value="" style="group" parent="1" vertex="1" connectable="0">
          <mxGeometry x="2194.88" y="395.72" width="120" height="110" as="geometry" />
        </mxCell>
        <mxCell id="vZlfEXrCbTeppOrJPky9-330" value="" style="group" parent="vZlfEXrCbTeppOrJPky9-329" vertex="1" connectable="0">
          <mxGeometry width="120" height="110" as="geometry" />
        </mxCell>
        <mxCell id="vZlfEXrCbTeppOrJPky9-331" value="" style="ellipse;whiteSpace=wrap;html=1;" parent="vZlfEXrCbTeppOrJPky9-330" vertex="1">
          <mxGeometry width="120" height="110" as="geometry" />
        </mxCell>
        <mxCell id="vZlfEXrCbTeppOrJPky9-332" value="" style="line;strokeWidth=2;html=1;rotation=-90;" parent="vZlfEXrCbTeppOrJPky9-330" vertex="1">
          <mxGeometry x="5.47" y="48.25" width="109.07" height="13.75" as="geometry" />
        </mxCell>
        <mxCell id="vZlfEXrCbTeppOrJPky9-333" value="" style="line;strokeWidth=2;html=1;" parent="vZlfEXrCbTeppOrJPky9-330" vertex="1">
          <mxGeometry x="60" y="50" width="60" height="13.75" as="geometry" />
        </mxCell>
        <mxCell id="vZlfEXrCbTeppOrJPky9-334" value="000" style="text;strokeColor=none;fillColor=none;html=1;align=center;verticalAlign=middle;whiteSpace=wrap;rounded=0;fontSize=16;" parent="vZlfEXrCbTeppOrJPky9-330" vertex="1">
          <mxGeometry x="60" y="5.0000000000000036" width="50" height="50" as="geometry" />
        </mxCell>
        <mxCell id="vZlfEXrCbTeppOrJPky9-335" value="000" style="text;strokeColor=none;fillColor=none;html=1;align=center;verticalAlign=middle;whiteSpace=wrap;rounded=0;fontSize=16;" parent="vZlfEXrCbTeppOrJPky9-330" vertex="1">
          <mxGeometry x="60" y="55" width="50" height="50" as="geometry" />
        </mxCell>
        <mxCell id="vZlfEXrCbTeppOrJPky9-336" value="PE22" style="text;strokeColor=none;fillColor=none;html=1;align=center;verticalAlign=middle;whiteSpace=wrap;rounded=0;fontSize=16;" parent="vZlfEXrCbTeppOrJPky9-330" vertex="1">
          <mxGeometry x="1.8799999999999955" y="31.72" width="50" height="50" as="geometry" />
        </mxCell>
        <mxCell id="vZlfEXrCbTeppOrJPky9-337" value="" style="endArrow=classic;html=1;rounded=0;entryX=0;entryY=0.5;entryDx=0;entryDy=0;exitX=1;exitY=0.5;exitDx=0;exitDy=0;exitPerimeter=0;" parent="1" source="vZlfEXrCbTeppOrJPky9-157" target="vZlfEXrCbTeppOrJPky9-342" edge="1">
          <mxGeometry width="50" height="50" relative="1" as="geometry">
            <mxPoint x="1097" y="334" as="sourcePoint" />
            <mxPoint x="1383" y="561.62" as="targetPoint" />
            <Array as="points">
              <mxPoint x="1567" y="424" />
            </Array>
          </mxGeometry>
        </mxCell>
        <mxCell id="vZlfEXrCbTeppOrJPky9-338" value="Persiapan Rencana Manajemen" style="edgeLabel;html=1;align=center;verticalAlign=middle;resizable=0;points=[];fontStyle=1" parent="vZlfEXrCbTeppOrJPky9-337" vertex="1" connectable="0">
          <mxGeometry x="0.1262" y="1" relative="1" as="geometry">
            <mxPoint x="-37" y="-14" as="offset" />
          </mxGeometry>
        </mxCell>
        <mxCell id="vZlfEXrCbTeppOrJPky9-339" value="3" style="edgeLabel;html=1;align=center;verticalAlign=middle;resizable=0;points=[];fontStyle=1" parent="vZlfEXrCbTeppOrJPky9-337" vertex="1" connectable="0">
          <mxGeometry x="0.0708" relative="1" as="geometry">
            <mxPoint x="-7" y="15" as="offset" />
          </mxGeometry>
        </mxCell>
        <mxCell id="vZlfEXrCbTeppOrJPky9-348" value="" style="endArrow=classic;html=1;rounded=0;entryX=0;entryY=0.5;entryDx=0;entryDy=0;exitX=1;exitY=0.5;exitDx=0;exitDy=0;exitPerimeter=0;" parent="1" source="vZlfEXrCbTeppOrJPky9-135" target="vZlfEXrCbTeppOrJPky9-353" edge="1">
          <mxGeometry width="50" height="50" relative="1" as="geometry">
            <mxPoint x="1137" y="420" as="sourcePoint" />
            <mxPoint x="1393" y="439.62" as="targetPoint" />
          </mxGeometry>
        </mxCell>
        <mxCell id="vZlfEXrCbTeppOrJPky9-349" value="Evaluasi Kelayakan Proyek" style="edgeLabel;html=1;align=center;verticalAlign=middle;resizable=0;points=[];fontStyle=1" parent="vZlfEXrCbTeppOrJPky9-348" vertex="1" connectable="0">
          <mxGeometry x="0.1262" y="1" relative="1" as="geometry">
            <mxPoint x="-7" y="-10" as="offset" />
          </mxGeometry>
        </mxCell>
        <mxCell id="vZlfEXrCbTeppOrJPky9-350" value="7" style="edgeLabel;html=1;align=center;verticalAlign=middle;resizable=0;points=[];fontStyle=1" parent="vZlfEXrCbTeppOrJPky9-348" vertex="1" connectable="0">
          <mxGeometry x="0.0708" relative="1" as="geometry">
            <mxPoint x="-12" y="10" as="offset" />
          </mxGeometry>
        </mxCell>
        <mxCell id="vZlfEXrCbTeppOrJPky9-370" value="" style="endArrow=classic;html=1;rounded=0;entryX=0;entryY=0.5;entryDx=0;entryDy=0;exitX=1;exitY=0.5;exitDx=0;exitDy=0;exitPerimeter=0;" parent="1" source="vZlfEXrCbTeppOrJPky9-267" target="vZlfEXrCbTeppOrJPky9-375" edge="1">
          <mxGeometry width="50" height="50" relative="1" as="geometry">
            <mxPoint x="2315" y="332" as="sourcePoint" />
            <mxPoint x="2571" y="351.62" as="targetPoint" />
            <Array as="points">
              <mxPoint x="2335" y="326" />
            </Array>
          </mxGeometry>
        </mxCell>
        <mxCell id="vZlfEXrCbTeppOrJPky9-371" value="Persiapan Rencana Manajemen Komunikasi" style="edgeLabel;html=1;align=center;verticalAlign=middle;resizable=0;points=[];fontStyle=1" parent="vZlfEXrCbTeppOrJPky9-370" vertex="1" connectable="0">
          <mxGeometry x="0.1262" y="1" relative="1" as="geometry">
            <mxPoint x="82" y="-13" as="offset" />
          </mxGeometry>
        </mxCell>
        <mxCell id="vZlfEXrCbTeppOrJPky9-372" value="7" style="edgeLabel;html=1;align=center;verticalAlign=middle;resizable=0;points=[];fontStyle=1" parent="vZlfEXrCbTeppOrJPky9-370" vertex="1" connectable="0">
          <mxGeometry x="0.0708" relative="1" as="geometry">
            <mxPoint x="96" y="16" as="offset" />
          </mxGeometry>
        </mxCell>
        <mxCell id="vZlfEXrCbTeppOrJPky9-373" value="" style="group" parent="1" vertex="1" connectable="0">
          <mxGeometry x="2585" y="271" width="120" height="110" as="geometry" />
        </mxCell>
        <mxCell id="vZlfEXrCbTeppOrJPky9-374" value="" style="group" parent="vZlfEXrCbTeppOrJPky9-373" vertex="1" connectable="0">
          <mxGeometry width="120" height="110" as="geometry" />
        </mxCell>
        <mxCell id="vZlfEXrCbTeppOrJPky9-375" value="" style="ellipse;whiteSpace=wrap;html=1;" parent="vZlfEXrCbTeppOrJPky9-374" vertex="1">
          <mxGeometry width="120" height="110" as="geometry" />
        </mxCell>
        <mxCell id="vZlfEXrCbTeppOrJPky9-376" value="" style="line;strokeWidth=2;html=1;rotation=-90;" parent="vZlfEXrCbTeppOrJPky9-374" vertex="1">
          <mxGeometry x="5.47" y="48.25" width="109.07" height="13.75" as="geometry" />
        </mxCell>
        <mxCell id="vZlfEXrCbTeppOrJPky9-377" value="" style="line;strokeWidth=2;html=1;" parent="vZlfEXrCbTeppOrJPky9-374" vertex="1">
          <mxGeometry x="60" y="50" width="60" height="13.75" as="geometry" />
        </mxCell>
        <mxCell id="vZlfEXrCbTeppOrJPky9-378" value="000" style="text;strokeColor=none;fillColor=none;html=1;align=center;verticalAlign=middle;whiteSpace=wrap;rounded=0;fontSize=16;" parent="vZlfEXrCbTeppOrJPky9-374" vertex="1">
          <mxGeometry x="60" y="5.0000000000000036" width="50" height="50" as="geometry" />
        </mxCell>
        <mxCell id="vZlfEXrCbTeppOrJPky9-379" value="000" style="text;strokeColor=none;fillColor=none;html=1;align=center;verticalAlign=middle;whiteSpace=wrap;rounded=0;fontSize=16;" parent="vZlfEXrCbTeppOrJPky9-374" vertex="1">
          <mxGeometry x="60" y="55" width="50" height="50" as="geometry" />
        </mxCell>
        <mxCell id="vZlfEXrCbTeppOrJPky9-380" value="PE29" style="text;strokeColor=none;fillColor=none;html=1;align=center;verticalAlign=middle;whiteSpace=wrap;rounded=0;fontSize=16;" parent="vZlfEXrCbTeppOrJPky9-374" vertex="1">
          <mxGeometry x="1.8799999999999955" y="31.72" width="50" height="50" as="geometry" />
        </mxCell>
        <mxCell id="vZlfEXrCbTeppOrJPky9-381" value="" style="endArrow=classic;html=1;rounded=0;entryX=0;entryY=0.5;entryDx=0;entryDy=0;exitX=1;exitY=0.5;exitDx=0;exitDy=0;exitPerimeter=0;" parent="1" source="vZlfEXrCbTeppOrJPky9-267" target="vZlfEXrCbTeppOrJPky9-386" edge="1">
          <mxGeometry width="50" height="50" relative="1" as="geometry">
            <mxPoint x="2314" y="210" as="sourcePoint" />
            <mxPoint x="2570" y="229.62" as="targetPoint" />
            <Array as="points">
              <mxPoint x="2375" y="210" />
            </Array>
          </mxGeometry>
        </mxCell>
        <mxCell id="vZlfEXrCbTeppOrJPky9-382" value="Persiapan Rencama Manajemen&lt;div&gt;Sumber Daya Manusia&lt;/div&gt;" style="edgeLabel;html=1;align=center;verticalAlign=middle;resizable=0;points=[];fontStyle=1" parent="vZlfEXrCbTeppOrJPky9-381" vertex="1" connectable="0">
          <mxGeometry x="0.1262" y="1" relative="1" as="geometry">
            <mxPoint x="31" y="-17" as="offset" />
          </mxGeometry>
        </mxCell>
        <mxCell id="vZlfEXrCbTeppOrJPky9-383" value="8" style="edgeLabel;html=1;align=center;verticalAlign=middle;resizable=0;points=[];fontStyle=1" parent="vZlfEXrCbTeppOrJPky9-381" vertex="1" connectable="0">
          <mxGeometry x="0.0708" relative="1" as="geometry">
            <mxPoint x="30" y="10" as="offset" />
          </mxGeometry>
        </mxCell>
        <mxCell id="vZlfEXrCbTeppOrJPky9-384" value="" style="group" parent="1" vertex="1" connectable="0">
          <mxGeometry x="2585" y="155" width="120" height="110" as="geometry" />
        </mxCell>
        <mxCell id="vZlfEXrCbTeppOrJPky9-385" value="" style="group" parent="vZlfEXrCbTeppOrJPky9-384" vertex="1" connectable="0">
          <mxGeometry width="120" height="110" as="geometry" />
        </mxCell>
        <mxCell id="vZlfEXrCbTeppOrJPky9-386" value="" style="ellipse;whiteSpace=wrap;html=1;" parent="vZlfEXrCbTeppOrJPky9-385" vertex="1">
          <mxGeometry width="120" height="110" as="geometry" />
        </mxCell>
        <mxCell id="vZlfEXrCbTeppOrJPky9-387" value="" style="line;strokeWidth=2;html=1;rotation=-90;" parent="vZlfEXrCbTeppOrJPky9-385" vertex="1">
          <mxGeometry x="5.47" y="48.25" width="109.07" height="13.75" as="geometry" />
        </mxCell>
        <mxCell id="vZlfEXrCbTeppOrJPky9-388" value="" style="line;strokeWidth=2;html=1;" parent="vZlfEXrCbTeppOrJPky9-385" vertex="1">
          <mxGeometry x="60" y="50" width="60" height="13.75" as="geometry" />
        </mxCell>
        <mxCell id="vZlfEXrCbTeppOrJPky9-389" value="000" style="text;strokeColor=none;fillColor=none;html=1;align=center;verticalAlign=middle;whiteSpace=wrap;rounded=0;fontSize=16;" parent="vZlfEXrCbTeppOrJPky9-385" vertex="1">
          <mxGeometry x="60" y="5.0000000000000036" width="50" height="50" as="geometry" />
        </mxCell>
        <mxCell id="vZlfEXrCbTeppOrJPky9-390" value="000" style="text;strokeColor=none;fillColor=none;html=1;align=center;verticalAlign=middle;whiteSpace=wrap;rounded=0;fontSize=16;" parent="vZlfEXrCbTeppOrJPky9-385" vertex="1">
          <mxGeometry x="60" y="55" width="50" height="50" as="geometry" />
        </mxCell>
        <mxCell id="vZlfEXrCbTeppOrJPky9-391" value="PE30" style="text;strokeColor=none;fillColor=none;html=1;align=center;verticalAlign=middle;whiteSpace=wrap;rounded=0;fontSize=16;" parent="vZlfEXrCbTeppOrJPky9-385" vertex="1">
          <mxGeometry x="1.8799999999999955" y="31.72" width="50" height="50" as="geometry" />
        </mxCell>
        <mxCell id="vZlfEXrCbTeppOrJPky9-392" value="" style="endArrow=classic;html=1;rounded=0;entryX=0;entryY=0.5;entryDx=0;entryDy=0;exitX=1;exitY=0.5;exitDx=0;exitDy=0;exitPerimeter=0;" parent="1" source="vZlfEXrCbTeppOrJPky9-267" target="vZlfEXrCbTeppOrJPky9-397" edge="1">
          <mxGeometry width="50" height="50" relative="1" as="geometry">
            <mxPoint x="2315" y="94" as="sourcePoint" />
            <mxPoint x="2568" y="111.62" as="targetPoint" />
          </mxGeometry>
        </mxCell>
        <mxCell id="vZlfEXrCbTeppOrJPky9-393" value="Persiapan Rencana Manajemen Waktu" style="edgeLabel;html=1;align=center;verticalAlign=middle;resizable=0;points=[];fontStyle=1" parent="vZlfEXrCbTeppOrJPky9-392" vertex="1" connectable="0">
          <mxGeometry x="0.1262" y="1" relative="1" as="geometry">
            <mxPoint y="-10" as="offset" />
          </mxGeometry>
        </mxCell>
        <mxCell id="vZlfEXrCbTeppOrJPky9-394" value="9" style="edgeLabel;html=1;align=center;verticalAlign=middle;resizable=0;points=[];fontStyle=1" parent="vZlfEXrCbTeppOrJPky9-392" vertex="1" connectable="0">
          <mxGeometry x="0.0708" relative="1" as="geometry">
            <mxPoint x="-3" y="10" as="offset" />
          </mxGeometry>
        </mxCell>
        <mxCell id="vZlfEXrCbTeppOrJPky9-395" value="" style="group" parent="1" vertex="1" connectable="0">
          <mxGeometry x="2585" y="37" width="120" height="110" as="geometry" />
        </mxCell>
        <mxCell id="vZlfEXrCbTeppOrJPky9-396" value="" style="group" parent="vZlfEXrCbTeppOrJPky9-395" vertex="1" connectable="0">
          <mxGeometry width="120" height="110" as="geometry" />
        </mxCell>
        <mxCell id="vZlfEXrCbTeppOrJPky9-397" value="" style="ellipse;whiteSpace=wrap;html=1;" parent="vZlfEXrCbTeppOrJPky9-396" vertex="1">
          <mxGeometry width="120" height="110" as="geometry" />
        </mxCell>
        <mxCell id="vZlfEXrCbTeppOrJPky9-398" value="" style="line;strokeWidth=2;html=1;rotation=-90;" parent="vZlfEXrCbTeppOrJPky9-396" vertex="1">
          <mxGeometry x="5.47" y="48.25" width="109.07" height="13.75" as="geometry" />
        </mxCell>
        <mxCell id="vZlfEXrCbTeppOrJPky9-399" value="" style="line;strokeWidth=2;html=1;" parent="vZlfEXrCbTeppOrJPky9-396" vertex="1">
          <mxGeometry x="60" y="50" width="60" height="13.75" as="geometry" />
        </mxCell>
        <mxCell id="vZlfEXrCbTeppOrJPky9-400" value="000" style="text;strokeColor=none;fillColor=none;html=1;align=center;verticalAlign=middle;whiteSpace=wrap;rounded=0;fontSize=16;" parent="vZlfEXrCbTeppOrJPky9-396" vertex="1">
          <mxGeometry x="60" y="5.0000000000000036" width="50" height="50" as="geometry" />
        </mxCell>
        <mxCell id="vZlfEXrCbTeppOrJPky9-401" value="000" style="text;strokeColor=none;fillColor=none;html=1;align=center;verticalAlign=middle;whiteSpace=wrap;rounded=0;fontSize=16;" parent="vZlfEXrCbTeppOrJPky9-396" vertex="1">
          <mxGeometry x="60" y="55" width="50" height="50" as="geometry" />
        </mxCell>
        <mxCell id="vZlfEXrCbTeppOrJPky9-402" value="PE31" style="text;strokeColor=none;fillColor=none;html=1;align=center;verticalAlign=middle;whiteSpace=wrap;rounded=0;fontSize=16;" parent="vZlfEXrCbTeppOrJPky9-396" vertex="1">
          <mxGeometry x="1.8799999999999955" y="31.72" width="50" height="50" as="geometry" />
        </mxCell>
        <mxCell id="vZlfEXrCbTeppOrJPky9-403" value="" style="endArrow=classic;html=1;rounded=0;entryX=0;entryY=0.5;entryDx=0;entryDy=0;exitX=1;exitY=0.5;exitDx=0;exitDy=0;exitPerimeter=0;" parent="1" source="vZlfEXrCbTeppOrJPky9-267" target="vZlfEXrCbTeppOrJPky9-408" edge="1">
          <mxGeometry width="50" height="50" relative="1" as="geometry">
            <mxPoint x="2305" y="-28" as="sourcePoint" />
            <mxPoint x="2567" y="-9.379999999999995" as="targetPoint" />
            <Array as="points">
              <mxPoint x="2375" y="-28" />
            </Array>
          </mxGeometry>
        </mxCell>
        <mxCell id="vZlfEXrCbTeppOrJPky9-404" value="Persiapan Rencana Manajemen Biaya" style="edgeLabel;html=1;align=center;verticalAlign=middle;resizable=0;points=[];fontStyle=1" parent="vZlfEXrCbTeppOrJPky9-403" vertex="1" connectable="0">
          <mxGeometry x="0.1262" y="1" relative="1" as="geometry">
            <mxPoint x="41" y="-10" as="offset" />
          </mxGeometry>
        </mxCell>
        <mxCell id="vZlfEXrCbTeppOrJPky9-405" value="6" style="edgeLabel;html=1;align=center;verticalAlign=middle;resizable=0;points=[];fontStyle=1" parent="vZlfEXrCbTeppOrJPky9-403" vertex="1" connectable="0">
          <mxGeometry x="0.0708" relative="1" as="geometry">
            <mxPoint x="50" y="10" as="offset" />
          </mxGeometry>
        </mxCell>
        <mxCell id="vZlfEXrCbTeppOrJPky9-406" value="" style="group" parent="1" vertex="1" connectable="0">
          <mxGeometry x="2584" y="-84" width="120" height="110" as="geometry" />
        </mxCell>
        <mxCell id="vZlfEXrCbTeppOrJPky9-407" value="" style="group" parent="vZlfEXrCbTeppOrJPky9-406" vertex="1" connectable="0">
          <mxGeometry width="120" height="110" as="geometry" />
        </mxCell>
        <mxCell id="vZlfEXrCbTeppOrJPky9-408" value="" style="ellipse;whiteSpace=wrap;html=1;" parent="vZlfEXrCbTeppOrJPky9-407" vertex="1">
          <mxGeometry width="120" height="110" as="geometry" />
        </mxCell>
        <mxCell id="vZlfEXrCbTeppOrJPky9-409" value="" style="line;strokeWidth=2;html=1;rotation=-90;" parent="vZlfEXrCbTeppOrJPky9-407" vertex="1">
          <mxGeometry x="5.47" y="48.25" width="109.07" height="13.75" as="geometry" />
        </mxCell>
        <mxCell id="vZlfEXrCbTeppOrJPky9-410" value="" style="line;strokeWidth=2;html=1;" parent="vZlfEXrCbTeppOrJPky9-407" vertex="1">
          <mxGeometry x="60" y="50" width="60" height="13.75" as="geometry" />
        </mxCell>
        <mxCell id="vZlfEXrCbTeppOrJPky9-411" value="000" style="text;strokeColor=none;fillColor=none;html=1;align=center;verticalAlign=middle;whiteSpace=wrap;rounded=0;fontSize=16;" parent="vZlfEXrCbTeppOrJPky9-407" vertex="1">
          <mxGeometry x="60" y="5.0000000000000036" width="50" height="50" as="geometry" />
        </mxCell>
        <mxCell id="vZlfEXrCbTeppOrJPky9-412" value="000" style="text;strokeColor=none;fillColor=none;html=1;align=center;verticalAlign=middle;whiteSpace=wrap;rounded=0;fontSize=16;" parent="vZlfEXrCbTeppOrJPky9-407" vertex="1">
          <mxGeometry x="60" y="55" width="50" height="50" as="geometry" />
        </mxCell>
        <mxCell id="vZlfEXrCbTeppOrJPky9-413" value="PE32" style="text;strokeColor=none;fillColor=none;html=1;align=center;verticalAlign=middle;whiteSpace=wrap;rounded=0;fontSize=16;" parent="vZlfEXrCbTeppOrJPky9-407" vertex="1">
          <mxGeometry x="1.8799999999999955" y="31.72" width="50" height="50" as="geometry" />
        </mxCell>
        <mxCell id="vZlfEXrCbTeppOrJPky9-414" value="" style="endArrow=classic;html=1;rounded=0;entryX=0;entryY=0.5;entryDx=0;entryDy=0;exitX=1;exitY=0.5;exitDx=0;exitDy=0;exitPerimeter=0;" parent="1" source="vZlfEXrCbTeppOrJPky9-267" target="vZlfEXrCbTeppOrJPky9-419" edge="1">
          <mxGeometry width="50" height="50" relative="1" as="geometry">
            <mxPoint x="2321" y="-150" as="sourcePoint" />
            <mxPoint x="2577" y="-130.38" as="targetPoint" />
            <Array as="points">
              <mxPoint x="2335" y="-150" />
            </Array>
          </mxGeometry>
        </mxCell>
        <mxCell id="vZlfEXrCbTeppOrJPky9-415" value="Persiapan Rencana Manajemen Integrasi" style="edgeLabel;html=1;align=center;verticalAlign=middle;resizable=0;points=[];fontStyle=1" parent="vZlfEXrCbTeppOrJPky9-414" vertex="1" connectable="0">
          <mxGeometry x="0.1262" y="1" relative="1" as="geometry">
            <mxPoint x="85" y="-10" as="offset" />
          </mxGeometry>
        </mxCell>
        <mxCell id="vZlfEXrCbTeppOrJPky9-416" value="7" style="edgeLabel;html=1;align=center;verticalAlign=middle;resizable=0;points=[];fontStyle=1" parent="vZlfEXrCbTeppOrJPky9-414" vertex="1" connectable="0">
          <mxGeometry x="0.0708" relative="1" as="geometry">
            <mxPoint x="109" y="10" as="offset" />
          </mxGeometry>
        </mxCell>
        <mxCell id="vZlfEXrCbTeppOrJPky9-417" value="" style="group" parent="1" vertex="1" connectable="0">
          <mxGeometry x="2584" y="-205" width="120" height="110" as="geometry" />
        </mxCell>
        <mxCell id="vZlfEXrCbTeppOrJPky9-418" value="" style="group" parent="vZlfEXrCbTeppOrJPky9-417" vertex="1" connectable="0">
          <mxGeometry width="120" height="110" as="geometry" />
        </mxCell>
        <mxCell id="vZlfEXrCbTeppOrJPky9-419" value="" style="ellipse;whiteSpace=wrap;html=1;" parent="vZlfEXrCbTeppOrJPky9-418" vertex="1">
          <mxGeometry width="120" height="110" as="geometry" />
        </mxCell>
        <mxCell id="vZlfEXrCbTeppOrJPky9-420" value="" style="line;strokeWidth=2;html=1;rotation=-90;" parent="vZlfEXrCbTeppOrJPky9-418" vertex="1">
          <mxGeometry x="5.47" y="48.25" width="109.07" height="13.75" as="geometry" />
        </mxCell>
        <mxCell id="vZlfEXrCbTeppOrJPky9-421" value="" style="line;strokeWidth=2;html=1;" parent="vZlfEXrCbTeppOrJPky9-418" vertex="1">
          <mxGeometry x="60" y="50" width="60" height="13.75" as="geometry" />
        </mxCell>
        <mxCell id="vZlfEXrCbTeppOrJPky9-422" value="000" style="text;strokeColor=none;fillColor=none;html=1;align=center;verticalAlign=middle;whiteSpace=wrap;rounded=0;fontSize=16;" parent="vZlfEXrCbTeppOrJPky9-418" vertex="1">
          <mxGeometry x="60" y="5.0000000000000036" width="50" height="50" as="geometry" />
        </mxCell>
        <mxCell id="vZlfEXrCbTeppOrJPky9-423" value="000" style="text;strokeColor=none;fillColor=none;html=1;align=center;verticalAlign=middle;whiteSpace=wrap;rounded=0;fontSize=16;" parent="vZlfEXrCbTeppOrJPky9-418" vertex="1">
          <mxGeometry x="60" y="55" width="50" height="50" as="geometry" />
        </mxCell>
        <mxCell id="vZlfEXrCbTeppOrJPky9-424" value="PE33" style="text;strokeColor=none;fillColor=none;html=1;align=center;verticalAlign=middle;whiteSpace=wrap;rounded=0;fontSize=16;" parent="vZlfEXrCbTeppOrJPky9-418" vertex="1">
          <mxGeometry x="1.8799999999999955" y="31.72" width="50" height="50" as="geometry" />
        </mxCell>
        <mxCell id="vZlfEXrCbTeppOrJPky9-425" value="" style="endArrow=classic;html=1;rounded=0;entryX=0;entryY=0.5;entryDx=0;entryDy=0;exitX=1;exitY=0.5;exitDx=0;exitDy=0;exitPerimeter=0;" parent="1" source="vZlfEXrCbTeppOrJPky9-135" target="vZlfEXrCbTeppOrJPky9-430" edge="1">
          <mxGeometry width="50" height="50" relative="1" as="geometry">
            <mxPoint x="1150" y="300" as="sourcePoint" />
            <mxPoint x="1406" y="319.6199999999999" as="targetPoint" />
            <Array as="points">
              <mxPoint x="1137" y="194" />
            </Array>
          </mxGeometry>
        </mxCell>
        <mxCell id="vZlfEXrCbTeppOrJPky9-426" value="Penyusunan Dokumen&lt;div&gt;Kontrak&lt;/div&gt;" style="edgeLabel;html=1;align=center;verticalAlign=middle;resizable=0;points=[];fontStyle=1" parent="vZlfEXrCbTeppOrJPky9-425" vertex="1" connectable="0">
          <mxGeometry x="0.1262" y="1" relative="1" as="geometry">
            <mxPoint x="47" y="-19" as="offset" />
          </mxGeometry>
        </mxCell>
        <mxCell id="vZlfEXrCbTeppOrJPky9-427" value="5" style="edgeLabel;html=1;align=center;verticalAlign=middle;resizable=0;points=[];fontStyle=1" parent="vZlfEXrCbTeppOrJPky9-425" vertex="1" connectable="0">
          <mxGeometry x="0.0708" relative="1" as="geometry">
            <mxPoint x="56" y="10" as="offset" />
          </mxGeometry>
        </mxCell>
        <mxCell id="vZlfEXrCbTeppOrJPky9-438" value="" style="endArrow=classic;html=1;rounded=0;entryX=0;entryY=0.5;entryDx=0;entryDy=0;exitX=1;exitY=0.5;exitDx=0;exitDy=0;exitPerimeter=0;" parent="1" source="vZlfEXrCbTeppOrJPky9-333" target="vZlfEXrCbTeppOrJPky9-443" edge="1">
          <mxGeometry width="50" height="50" relative="1" as="geometry">
            <mxPoint x="2307" y="432" as="sourcePoint" />
            <mxPoint x="2563" y="451.62" as="targetPoint" />
          </mxGeometry>
        </mxCell>
        <mxCell id="vZlfEXrCbTeppOrJPky9-439" value="Implementasi" style="edgeLabel;html=1;align=center;verticalAlign=middle;resizable=0;points=[];fontStyle=1" parent="vZlfEXrCbTeppOrJPky9-438" vertex="1" connectable="0">
          <mxGeometry x="0.1262" y="1" relative="1" as="geometry">
            <mxPoint x="-20" y="-10" as="offset" />
          </mxGeometry>
        </mxCell>
        <mxCell id="vZlfEXrCbTeppOrJPky9-440" value="8" style="edgeLabel;html=1;align=center;verticalAlign=middle;resizable=0;points=[];fontStyle=1" parent="vZlfEXrCbTeppOrJPky9-438" vertex="1" connectable="0">
          <mxGeometry x="0.0708" relative="1" as="geometry">
            <mxPoint x="-12" y="10" as="offset" />
          </mxGeometry>
        </mxCell>
        <mxCell id="vZlfEXrCbTeppOrJPky9-441" value="" style="group" parent="1" vertex="1" connectable="0">
          <mxGeometry x="2585" y="398" width="120" height="110" as="geometry" />
        </mxCell>
        <mxCell id="vZlfEXrCbTeppOrJPky9-442" value="" style="group" parent="vZlfEXrCbTeppOrJPky9-441" vertex="1" connectable="0">
          <mxGeometry width="120" height="110" as="geometry" />
        </mxCell>
        <mxCell id="vZlfEXrCbTeppOrJPky9-443" value="" style="ellipse;whiteSpace=wrap;html=1;" parent="vZlfEXrCbTeppOrJPky9-442" vertex="1">
          <mxGeometry width="120" height="110" as="geometry" />
        </mxCell>
        <mxCell id="vZlfEXrCbTeppOrJPky9-444" value="" style="line;strokeWidth=2;html=1;rotation=-90;" parent="vZlfEXrCbTeppOrJPky9-442" vertex="1">
          <mxGeometry x="5.47" y="48.25" width="109.07" height="13.75" as="geometry" />
        </mxCell>
        <mxCell id="vZlfEXrCbTeppOrJPky9-445" value="" style="line;strokeWidth=2;html=1;" parent="vZlfEXrCbTeppOrJPky9-442" vertex="1">
          <mxGeometry x="60" y="50" width="60" height="13.75" as="geometry" />
        </mxCell>
        <mxCell id="vZlfEXrCbTeppOrJPky9-446" value="000" style="text;strokeColor=none;fillColor=none;html=1;align=center;verticalAlign=middle;whiteSpace=wrap;rounded=0;fontSize=16;" parent="vZlfEXrCbTeppOrJPky9-442" vertex="1">
          <mxGeometry x="60" y="5.0000000000000036" width="50" height="50" as="geometry" />
        </mxCell>
        <mxCell id="vZlfEXrCbTeppOrJPky9-447" value="000" style="text;strokeColor=none;fillColor=none;html=1;align=center;verticalAlign=middle;whiteSpace=wrap;rounded=0;fontSize=16;" parent="vZlfEXrCbTeppOrJPky9-442" vertex="1">
          <mxGeometry x="60" y="55" width="50" height="50" as="geometry" />
        </mxCell>
        <mxCell id="vZlfEXrCbTeppOrJPky9-448" value="IM34" style="text;strokeColor=none;fillColor=none;html=1;align=center;verticalAlign=middle;whiteSpace=wrap;rounded=0;fontSize=16;" parent="vZlfEXrCbTeppOrJPky9-442" vertex="1">
          <mxGeometry x="1.8799999999999955" y="31.72" width="50" height="50" as="geometry" />
        </mxCell>
        <mxCell id="vZlfEXrCbTeppOrJPky9-449" value="" style="endArrow=classic;html=1;rounded=0;entryX=0;entryY=0.5;entryDx=0;entryDy=0;exitX=1;exitY=0.5;exitDx=0;exitDy=0;exitPerimeter=0;" parent="1" source="vZlfEXrCbTeppOrJPky9-445" target="vZlfEXrCbTeppOrJPky9-454" edge="1">
          <mxGeometry width="50" height="50" relative="1" as="geometry">
            <mxPoint x="2737" y="769.5" as="sourcePoint" />
            <mxPoint x="2993" y="789.12" as="targetPoint" />
            <Array as="points">
              <mxPoint x="2737" y="770" />
            </Array>
          </mxGeometry>
        </mxCell>
        <mxCell id="vZlfEXrCbTeppOrJPky9-450" value="Pelatihan Pengguna" style="edgeLabel;html=1;align=center;verticalAlign=middle;resizable=0;points=[];fontStyle=1" parent="vZlfEXrCbTeppOrJPky9-449" vertex="1" connectable="0">
          <mxGeometry x="0.1262" y="1" relative="1" as="geometry">
            <mxPoint x="110" y="-3" as="offset" />
          </mxGeometry>
        </mxCell>
        <mxCell id="vZlfEXrCbTeppOrJPky9-451" value="9" style="edgeLabel;html=1;align=center;verticalAlign=middle;resizable=0;points=[];fontStyle=1" parent="vZlfEXrCbTeppOrJPky9-449" vertex="1" connectable="0">
          <mxGeometry x="0.0708" relative="1" as="geometry">
            <mxPoint x="113" y="41" as="offset" />
          </mxGeometry>
        </mxCell>
        <mxCell id="vZlfEXrCbTeppOrJPky9-452" value="" style="group" parent="1" vertex="1" connectable="0">
          <mxGeometry x="2972" y="714.5" width="120" height="110" as="geometry" />
        </mxCell>
        <mxCell id="vZlfEXrCbTeppOrJPky9-453" value="" style="group" parent="vZlfEXrCbTeppOrJPky9-452" vertex="1" connectable="0">
          <mxGeometry width="120" height="110" as="geometry" />
        </mxCell>
        <mxCell id="vZlfEXrCbTeppOrJPky9-454" value="" style="ellipse;whiteSpace=wrap;html=1;" parent="vZlfEXrCbTeppOrJPky9-453" vertex="1">
          <mxGeometry width="120" height="110" as="geometry" />
        </mxCell>
        <mxCell id="vZlfEXrCbTeppOrJPky9-455" value="" style="line;strokeWidth=2;html=1;rotation=-90;" parent="vZlfEXrCbTeppOrJPky9-453" vertex="1">
          <mxGeometry x="5.47" y="48.25" width="109.07" height="13.75" as="geometry" />
        </mxCell>
        <mxCell id="vZlfEXrCbTeppOrJPky9-456" value="" style="line;strokeWidth=2;html=1;" parent="vZlfEXrCbTeppOrJPky9-453" vertex="1">
          <mxGeometry x="60" y="50" width="60" height="13.75" as="geometry" />
        </mxCell>
        <mxCell id="vZlfEXrCbTeppOrJPky9-457" value="000" style="text;strokeColor=none;fillColor=none;html=1;align=center;verticalAlign=middle;whiteSpace=wrap;rounded=0;fontSize=16;" parent="vZlfEXrCbTeppOrJPky9-453" vertex="1">
          <mxGeometry x="60" y="5.0000000000000036" width="50" height="50" as="geometry" />
        </mxCell>
        <mxCell id="vZlfEXrCbTeppOrJPky9-458" value="000" style="text;strokeColor=none;fillColor=none;html=1;align=center;verticalAlign=middle;whiteSpace=wrap;rounded=0;fontSize=16;" parent="vZlfEXrCbTeppOrJPky9-453" vertex="1">
          <mxGeometry x="60" y="55" width="50" height="50" as="geometry" />
        </mxCell>
        <mxCell id="vZlfEXrCbTeppOrJPky9-459" value="IM35" style="text;strokeColor=none;fillColor=none;html=1;align=center;verticalAlign=middle;whiteSpace=wrap;rounded=0;fontSize=16;" parent="vZlfEXrCbTeppOrJPky9-453" vertex="1">
          <mxGeometry x="1.8799999999999955" y="31.72" width="50" height="50" as="geometry" />
        </mxCell>
        <mxCell id="vZlfEXrCbTeppOrJPky9-460" value="" style="endArrow=classic;html=1;rounded=0;entryX=0;entryY=0.5;entryDx=0;entryDy=0;exitX=1;exitY=0.5;exitDx=0;exitDy=0;" parent="1" source="vZlfEXrCbTeppOrJPky9-443" target="vZlfEXrCbTeppOrJPky9-465" edge="1">
          <mxGeometry width="50" height="50" relative="1" as="geometry">
            <mxPoint x="2747" y="641.5" as="sourcePoint" />
            <mxPoint x="3003" y="661.12" as="targetPoint" />
            <Array as="points">
              <mxPoint x="2737" y="644" />
            </Array>
          </mxGeometry>
        </mxCell>
        <mxCell id="vZlfEXrCbTeppOrJPky9-461" value="Migrasi Data" style="edgeLabel;html=1;align=center;verticalAlign=middle;resizable=0;points=[];fontStyle=1" parent="vZlfEXrCbTeppOrJPky9-460" vertex="1" connectable="0">
          <mxGeometry x="0.1262" y="1" relative="1" as="geometry">
            <mxPoint x="63" y="-10" as="offset" />
          </mxGeometry>
        </mxCell>
        <mxCell id="vZlfEXrCbTeppOrJPky9-462" value="8" style="edgeLabel;html=1;align=center;verticalAlign=middle;resizable=0;points=[];fontStyle=1" parent="vZlfEXrCbTeppOrJPky9-460" vertex="1" connectable="0">
          <mxGeometry x="0.0708" relative="1" as="geometry">
            <mxPoint x="65" y="10" as="offset" />
          </mxGeometry>
        </mxCell>
        <mxCell id="vZlfEXrCbTeppOrJPky9-463" value="" style="group" parent="1" vertex="1" connectable="0">
          <mxGeometry x="2972" y="586.5" width="120" height="110" as="geometry" />
        </mxCell>
        <mxCell id="vZlfEXrCbTeppOrJPky9-464" value="" style="group" parent="vZlfEXrCbTeppOrJPky9-463" vertex="1" connectable="0">
          <mxGeometry width="120" height="110" as="geometry" />
        </mxCell>
        <mxCell id="vZlfEXrCbTeppOrJPky9-465" value="" style="ellipse;whiteSpace=wrap;html=1;" parent="vZlfEXrCbTeppOrJPky9-464" vertex="1">
          <mxGeometry width="120" height="110" as="geometry" />
        </mxCell>
        <mxCell id="vZlfEXrCbTeppOrJPky9-466" value="" style="line;strokeWidth=2;html=1;rotation=-90;" parent="vZlfEXrCbTeppOrJPky9-464" vertex="1">
          <mxGeometry x="5.47" y="48.25" width="109.07" height="13.75" as="geometry" />
        </mxCell>
        <mxCell id="vZlfEXrCbTeppOrJPky9-467" value="" style="line;strokeWidth=2;html=1;" parent="vZlfEXrCbTeppOrJPky9-464" vertex="1">
          <mxGeometry x="60" y="50" width="60" height="13.75" as="geometry" />
        </mxCell>
        <mxCell id="vZlfEXrCbTeppOrJPky9-468" value="000" style="text;strokeColor=none;fillColor=none;html=1;align=center;verticalAlign=middle;whiteSpace=wrap;rounded=0;fontSize=16;" parent="vZlfEXrCbTeppOrJPky9-464" vertex="1">
          <mxGeometry x="60" y="5.0000000000000036" width="50" height="50" as="geometry" />
        </mxCell>
        <mxCell id="vZlfEXrCbTeppOrJPky9-469" value="000" style="text;strokeColor=none;fillColor=none;html=1;align=center;verticalAlign=middle;whiteSpace=wrap;rounded=0;fontSize=16;" parent="vZlfEXrCbTeppOrJPky9-464" vertex="1">
          <mxGeometry x="60" y="55" width="50" height="50" as="geometry" />
        </mxCell>
        <mxCell id="vZlfEXrCbTeppOrJPky9-470" value="IM36" style="text;strokeColor=none;fillColor=none;html=1;align=center;verticalAlign=middle;whiteSpace=wrap;rounded=0;fontSize=16;" parent="vZlfEXrCbTeppOrJPky9-464" vertex="1">
          <mxGeometry x="1.8799999999999955" y="31.72" width="50" height="50" as="geometry" />
        </mxCell>
        <mxCell id="vZlfEXrCbTeppOrJPky9-471" value="" style="endArrow=classic;html=1;rounded=0;entryX=0;entryY=0.5;entryDx=0;entryDy=0;exitX=1;exitY=0.5;exitDx=0;exitDy=0;exitPerimeter=0;" parent="1" source="vZlfEXrCbTeppOrJPky9-445" target="vZlfEXrCbTeppOrJPky9-476" edge="1">
          <mxGeometry width="50" height="50" relative="1" as="geometry">
            <mxPoint x="2746" y="511.5" as="sourcePoint" />
            <mxPoint x="3002" y="531.12" as="targetPoint" />
            <Array as="points">
              <mxPoint x="2737" y="514" />
            </Array>
          </mxGeometry>
        </mxCell>
        <mxCell id="vZlfEXrCbTeppOrJPky9-472" value="Uji Coba Sistem" style="edgeLabel;html=1;align=center;verticalAlign=middle;resizable=0;points=[];fontStyle=1" parent="vZlfEXrCbTeppOrJPky9-471" vertex="1" connectable="0">
          <mxGeometry x="0.1262" y="1" relative="1" as="geometry">
            <mxPoint x="-2" y="-10" as="offset" />
          </mxGeometry>
        </mxCell>
        <mxCell id="vZlfEXrCbTeppOrJPky9-473" value="6" style="edgeLabel;html=1;align=center;verticalAlign=middle;resizable=0;points=[];fontStyle=1" parent="vZlfEXrCbTeppOrJPky9-471" vertex="1" connectable="0">
          <mxGeometry x="0.0708" relative="1" as="geometry">
            <mxPoint x="6" y="10" as="offset" />
          </mxGeometry>
        </mxCell>
        <mxCell id="vZlfEXrCbTeppOrJPky9-474" value="" style="group" parent="1" vertex="1" connectable="0">
          <mxGeometry x="2972" y="456.5" width="120" height="110" as="geometry" />
        </mxCell>
        <mxCell id="vZlfEXrCbTeppOrJPky9-475" value="" style="group" parent="vZlfEXrCbTeppOrJPky9-474" vertex="1" connectable="0">
          <mxGeometry width="120" height="110" as="geometry" />
        </mxCell>
        <mxCell id="vZlfEXrCbTeppOrJPky9-476" value="" style="ellipse;whiteSpace=wrap;html=1;" parent="vZlfEXrCbTeppOrJPky9-475" vertex="1">
          <mxGeometry width="120" height="110" as="geometry" />
        </mxCell>
        <mxCell id="vZlfEXrCbTeppOrJPky9-477" value="" style="line;strokeWidth=2;html=1;rotation=-90;" parent="vZlfEXrCbTeppOrJPky9-475" vertex="1">
          <mxGeometry x="5.47" y="48.25" width="109.07" height="13.75" as="geometry" />
        </mxCell>
        <mxCell id="vZlfEXrCbTeppOrJPky9-478" value="" style="line;strokeWidth=2;html=1;" parent="vZlfEXrCbTeppOrJPky9-475" vertex="1">
          <mxGeometry x="60" y="50" width="60" height="13.75" as="geometry" />
        </mxCell>
        <mxCell id="vZlfEXrCbTeppOrJPky9-479" value="000" style="text;strokeColor=none;fillColor=none;html=1;align=center;verticalAlign=middle;whiteSpace=wrap;rounded=0;fontSize=16;" parent="vZlfEXrCbTeppOrJPky9-475" vertex="1">
          <mxGeometry x="60" y="5.0000000000000036" width="50" height="50" as="geometry" />
        </mxCell>
        <mxCell id="vZlfEXrCbTeppOrJPky9-480" value="000" style="text;strokeColor=none;fillColor=none;html=1;align=center;verticalAlign=middle;whiteSpace=wrap;rounded=0;fontSize=16;" parent="vZlfEXrCbTeppOrJPky9-475" vertex="1">
          <mxGeometry x="60" y="55" width="50" height="50" as="geometry" />
        </mxCell>
        <mxCell id="vZlfEXrCbTeppOrJPky9-481" value="IM37" style="text;strokeColor=none;fillColor=none;html=1;align=center;verticalAlign=middle;whiteSpace=wrap;rounded=0;fontSize=16;" parent="vZlfEXrCbTeppOrJPky9-475" vertex="1">
          <mxGeometry x="1.8799999999999955" y="31.72" width="50" height="50" as="geometry" />
        </mxCell>
        <mxCell id="vZlfEXrCbTeppOrJPky9-482" value="" style="endArrow=classic;html=1;rounded=0;entryX=0;entryY=0.5;entryDx=0;entryDy=0;exitX=1;exitY=0.5;exitDx=0;exitDy=0;" parent="1" source="vZlfEXrCbTeppOrJPky9-443" target="vZlfEXrCbTeppOrJPky9-487" edge="1">
          <mxGeometry width="50" height="50" relative="1" as="geometry">
            <mxPoint x="2747" y="390.5" as="sourcePoint" />
            <mxPoint x="3003" y="410.12" as="targetPoint" />
            <Array as="points">
              <mxPoint x="2737" y="391" />
            </Array>
          </mxGeometry>
        </mxCell>
        <mxCell id="vZlfEXrCbTeppOrJPky9-483" value="Penyesuaian dan Perbaikan" style="edgeLabel;html=1;align=center;verticalAlign=middle;resizable=0;points=[];fontStyle=1" parent="vZlfEXrCbTeppOrJPky9-482" vertex="1" connectable="0">
          <mxGeometry x="0.1262" y="1" relative="1" as="geometry">
            <mxPoint x="9" y="-10" as="offset" />
          </mxGeometry>
        </mxCell>
        <mxCell id="vZlfEXrCbTeppOrJPky9-484" value="9" style="edgeLabel;html=1;align=center;verticalAlign=middle;resizable=0;points=[];fontStyle=1" parent="vZlfEXrCbTeppOrJPky9-482" vertex="1" connectable="0">
          <mxGeometry x="0.0708" relative="1" as="geometry">
            <mxPoint x="7" y="10" as="offset" />
          </mxGeometry>
        </mxCell>
        <mxCell id="vZlfEXrCbTeppOrJPky9-485" value="" style="group" parent="1" vertex="1" connectable="0">
          <mxGeometry x="2973" y="335.5" width="120" height="110" as="geometry" />
        </mxCell>
        <mxCell id="vZlfEXrCbTeppOrJPky9-486" value="" style="group" parent="vZlfEXrCbTeppOrJPky9-485" vertex="1" connectable="0">
          <mxGeometry width="120" height="110" as="geometry" />
        </mxCell>
        <mxCell id="vZlfEXrCbTeppOrJPky9-487" value="" style="ellipse;whiteSpace=wrap;html=1;" parent="vZlfEXrCbTeppOrJPky9-486" vertex="1">
          <mxGeometry width="120" height="110" as="geometry" />
        </mxCell>
        <mxCell id="vZlfEXrCbTeppOrJPky9-488" value="" style="line;strokeWidth=2;html=1;rotation=-90;" parent="vZlfEXrCbTeppOrJPky9-486" vertex="1">
          <mxGeometry x="5.47" y="48.25" width="109.07" height="13.75" as="geometry" />
        </mxCell>
        <mxCell id="vZlfEXrCbTeppOrJPky9-489" value="" style="line;strokeWidth=2;html=1;" parent="vZlfEXrCbTeppOrJPky9-486" vertex="1">
          <mxGeometry x="60" y="50" width="60" height="13.75" as="geometry" />
        </mxCell>
        <mxCell id="vZlfEXrCbTeppOrJPky9-490" value="000" style="text;strokeColor=none;fillColor=none;html=1;align=center;verticalAlign=middle;whiteSpace=wrap;rounded=0;fontSize=16;" parent="vZlfEXrCbTeppOrJPky9-486" vertex="1">
          <mxGeometry x="60" y="5.0000000000000036" width="50" height="50" as="geometry" />
        </mxCell>
        <mxCell id="vZlfEXrCbTeppOrJPky9-491" value="000" style="text;strokeColor=none;fillColor=none;html=1;align=center;verticalAlign=middle;whiteSpace=wrap;rounded=0;fontSize=16;" parent="vZlfEXrCbTeppOrJPky9-486" vertex="1">
          <mxGeometry x="60" y="55" width="50" height="50" as="geometry" />
        </mxCell>
        <mxCell id="vZlfEXrCbTeppOrJPky9-492" value="IM38" style="text;strokeColor=none;fillColor=none;html=1;align=center;verticalAlign=middle;whiteSpace=wrap;rounded=0;fontSize=16;" parent="vZlfEXrCbTeppOrJPky9-486" vertex="1">
          <mxGeometry x="1.8799999999999955" y="31.72" width="50" height="50" as="geometry" />
        </mxCell>
        <mxCell id="vZlfEXrCbTeppOrJPky9-493" value="" style="endArrow=classic;html=1;rounded=0;entryX=0;entryY=0.5;entryDx=0;entryDy=0;exitX=1;exitY=0.5;exitDx=0;exitDy=0;" parent="1" source="vZlfEXrCbTeppOrJPky9-443" target="vZlfEXrCbTeppOrJPky9-498" edge="1">
          <mxGeometry width="50" height="50" relative="1" as="geometry">
            <mxPoint x="2757" y="262.5" as="sourcePoint" />
            <mxPoint x="3013" y="282.12" as="targetPoint" />
            <Array as="points">
              <mxPoint x="2737" y="264" />
            </Array>
          </mxGeometry>
        </mxCell>
        <mxCell id="vZlfEXrCbTeppOrJPky9-494" value="Peluncuran Sistem" style="edgeLabel;html=1;align=center;verticalAlign=middle;resizable=0;points=[];fontStyle=1" parent="vZlfEXrCbTeppOrJPky9-493" vertex="1" connectable="0">
          <mxGeometry x="0.1262" y="1" relative="1" as="geometry">
            <mxPoint x="47" y="-10" as="offset" />
          </mxGeometry>
        </mxCell>
        <mxCell id="vZlfEXrCbTeppOrJPky9-495" value="8" style="edgeLabel;html=1;align=center;verticalAlign=middle;resizable=0;points=[];fontStyle=1" parent="vZlfEXrCbTeppOrJPky9-493" vertex="1" connectable="0">
          <mxGeometry x="0.0708" relative="1" as="geometry">
            <mxPoint x="59" y="10" as="offset" />
          </mxGeometry>
        </mxCell>
        <mxCell id="vZlfEXrCbTeppOrJPky9-496" value="" style="group" parent="1" vertex="1" connectable="0">
          <mxGeometry x="2973" y="207.5" width="120" height="110" as="geometry" />
        </mxCell>
        <mxCell id="vZlfEXrCbTeppOrJPky9-497" value="" style="group" parent="vZlfEXrCbTeppOrJPky9-496" vertex="1" connectable="0">
          <mxGeometry width="120" height="110" as="geometry" />
        </mxCell>
        <mxCell id="vZlfEXrCbTeppOrJPky9-498" value="" style="ellipse;whiteSpace=wrap;html=1;" parent="vZlfEXrCbTeppOrJPky9-497" vertex="1">
          <mxGeometry width="120" height="110" as="geometry" />
        </mxCell>
        <mxCell id="vZlfEXrCbTeppOrJPky9-499" value="" style="line;strokeWidth=2;html=1;rotation=-90;" parent="vZlfEXrCbTeppOrJPky9-497" vertex="1">
          <mxGeometry x="5.47" y="48.25" width="109.07" height="13.75" as="geometry" />
        </mxCell>
        <mxCell id="vZlfEXrCbTeppOrJPky9-500" value="" style="line;strokeWidth=2;html=1;" parent="vZlfEXrCbTeppOrJPky9-497" vertex="1">
          <mxGeometry x="60" y="50" width="60" height="13.75" as="geometry" />
        </mxCell>
        <mxCell id="vZlfEXrCbTeppOrJPky9-501" value="000" style="text;strokeColor=none;fillColor=none;html=1;align=center;verticalAlign=middle;whiteSpace=wrap;rounded=0;fontSize=16;" parent="vZlfEXrCbTeppOrJPky9-497" vertex="1">
          <mxGeometry x="60" y="5.0000000000000036" width="50" height="50" as="geometry" />
        </mxCell>
        <mxCell id="vZlfEXrCbTeppOrJPky9-502" value="000" style="text;strokeColor=none;fillColor=none;html=1;align=center;verticalAlign=middle;whiteSpace=wrap;rounded=0;fontSize=16;" parent="vZlfEXrCbTeppOrJPky9-497" vertex="1">
          <mxGeometry x="60" y="55" width="50" height="50" as="geometry" />
        </mxCell>
        <mxCell id="vZlfEXrCbTeppOrJPky9-503" value="IM39" style="text;strokeColor=none;fillColor=none;html=1;align=center;verticalAlign=middle;whiteSpace=wrap;rounded=0;fontSize=16;" parent="vZlfEXrCbTeppOrJPky9-497" vertex="1">
          <mxGeometry x="1.8799999999999955" y="31.72" width="50" height="50" as="geometry" />
        </mxCell>
        <mxCell id="vZlfEXrCbTeppOrJPky9-504" value="" style="endArrow=classic;html=1;rounded=0;entryX=0;entryY=0.5;entryDx=0;entryDy=0;exitX=1;exitY=0.5;exitDx=0;exitDy=0;exitPerimeter=0;" parent="1" source="vZlfEXrCbTeppOrJPky9-445" target="vZlfEXrCbTeppOrJPky9-509" edge="1">
          <mxGeometry width="50" height="50" relative="1" as="geometry">
            <mxPoint x="2763" y="136.5" as="sourcePoint" />
            <mxPoint x="3019" y="156.12" as="targetPoint" />
            <Array as="points">
              <mxPoint x="2737" y="137" />
            </Array>
          </mxGeometry>
        </mxCell>
        <mxCell id="vZlfEXrCbTeppOrJPky9-505" value="Evaluasi dan Pemeliharaan" style="edgeLabel;html=1;align=center;verticalAlign=middle;resizable=0;points=[];fontStyle=1" parent="vZlfEXrCbTeppOrJPky9-504" vertex="1" connectable="0">
          <mxGeometry x="0.1262" y="1" relative="1" as="geometry">
            <mxPoint x="128" y="-19" as="offset" />
          </mxGeometry>
        </mxCell>
        <mxCell id="vZlfEXrCbTeppOrJPky9-506" value="3" style="edgeLabel;html=1;align=center;verticalAlign=middle;resizable=0;points=[];fontStyle=1" parent="vZlfEXrCbTeppOrJPky9-504" vertex="1" connectable="0">
          <mxGeometry x="0.0708" relative="1" as="geometry">
            <mxPoint x="131" y="3" as="offset" />
          </mxGeometry>
        </mxCell>
        <mxCell id="vZlfEXrCbTeppOrJPky9-507" value="" style="group" parent="1" vertex="1" connectable="0">
          <mxGeometry x="2973" y="81.5" width="120" height="110" as="geometry" />
        </mxCell>
        <mxCell id="vZlfEXrCbTeppOrJPky9-508" value="" style="group" parent="vZlfEXrCbTeppOrJPky9-507" vertex="1" connectable="0">
          <mxGeometry width="120" height="110" as="geometry" />
        </mxCell>
        <mxCell id="vZlfEXrCbTeppOrJPky9-509" value="" style="ellipse;whiteSpace=wrap;html=1;" parent="vZlfEXrCbTeppOrJPky9-508" vertex="1">
          <mxGeometry width="120" height="110" as="geometry" />
        </mxCell>
        <mxCell id="vZlfEXrCbTeppOrJPky9-510" value="" style="line;strokeWidth=2;html=1;rotation=-90;" parent="vZlfEXrCbTeppOrJPky9-508" vertex="1">
          <mxGeometry x="5.47" y="48.25" width="109.07" height="13.75" as="geometry" />
        </mxCell>
        <mxCell id="vZlfEXrCbTeppOrJPky9-511" value="" style="line;strokeWidth=2;html=1;" parent="vZlfEXrCbTeppOrJPky9-508" vertex="1">
          <mxGeometry x="60" y="50" width="60" height="13.75" as="geometry" />
        </mxCell>
        <mxCell id="vZlfEXrCbTeppOrJPky9-512" value="000" style="text;strokeColor=none;fillColor=none;html=1;align=center;verticalAlign=middle;whiteSpace=wrap;rounded=0;fontSize=16;" parent="vZlfEXrCbTeppOrJPky9-508" vertex="1">
          <mxGeometry x="60" y="5.0000000000000036" width="50" height="50" as="geometry" />
        </mxCell>
        <mxCell id="vZlfEXrCbTeppOrJPky9-513" value="000" style="text;strokeColor=none;fillColor=none;html=1;align=center;verticalAlign=middle;whiteSpace=wrap;rounded=0;fontSize=16;" parent="vZlfEXrCbTeppOrJPky9-508" vertex="1">
          <mxGeometry x="60" y="55" width="50" height="50" as="geometry" />
        </mxCell>
        <mxCell id="vZlfEXrCbTeppOrJPky9-514" value="IM40" style="text;strokeColor=none;fillColor=none;html=1;align=center;verticalAlign=middle;whiteSpace=wrap;rounded=0;fontSize=16;" parent="vZlfEXrCbTeppOrJPky9-508" vertex="1">
          <mxGeometry x="1.8799999999999955" y="31.72" width="50" height="50" as="geometry" />
        </mxCell>
        <mxCell id="vZlfEXrCbTeppOrJPky9-517" value="" style="endArrow=classic;html=1;rounded=0;exitX=1;exitY=0.5;exitDx=0;exitDy=0;exitPerimeter=0;entryX=0;entryY=0.5;entryDx=0;entryDy=0;" parent="1" source="vZlfEXrCbTeppOrJPky9-14" target="vZlfEXrCbTeppOrJPky9-101" edge="1">
          <mxGeometry width="50" height="50" relative="1" as="geometry">
            <mxPoint x="607" y="907" as="sourcePoint" />
            <mxPoint x="677" y="1017" as="targetPoint" />
          </mxGeometry>
        </mxCell>
        <mxCell id="vZlfEXrCbTeppOrJPky9-518" value="Design Basis Data" style="edgeLabel;html=1;align=center;verticalAlign=middle;resizable=0;points=[];fontStyle=1;rotation=0;" parent="vZlfEXrCbTeppOrJPky9-517" vertex="1" connectable="0">
          <mxGeometry x="-0.4595" y="1" relative="1" as="geometry">
            <mxPoint x="26" y="-16" as="offset" />
          </mxGeometry>
        </mxCell>
        <mxCell id="vZlfEXrCbTeppOrJPky9-519" value="7" style="edgeLabel;html=1;align=center;verticalAlign=middle;resizable=0;points=[];fontStyle=1" parent="vZlfEXrCbTeppOrJPky9-517" vertex="1" connectable="0">
          <mxGeometry x="0.073" y="1" relative="1" as="geometry">
            <mxPoint x="-18" y="14" as="offset" />
          </mxGeometry>
        </mxCell>
        <mxCell id="vZlfEXrCbTeppOrJPky9-632" value="" style="endArrow=classic;html=1;rounded=0;entryX=0;entryY=0.5;entryDx=0;entryDy=0;exitX=1;exitY=0.5;exitDx=0;exitDy=0;exitPerimeter=0;" parent="1" source="vZlfEXrCbTeppOrJPky9-256" target="vZlfEXrCbTeppOrJPky9-637" edge="1">
          <mxGeometry width="50" height="50" relative="1" as="geometry">
            <mxPoint x="1194" y="819" as="sourcePoint" />
            <mxPoint x="1471" y="920.62" as="targetPoint" />
            <Array as="points">
              <mxPoint x="1137" y="1145" />
            </Array>
          </mxGeometry>
        </mxCell>
        <mxCell id="vZlfEXrCbTeppOrJPky9-633" value="Pembuatan Jadwal" style="edgeLabel;html=1;align=center;verticalAlign=middle;resizable=0;points=[];fontStyle=1" parent="vZlfEXrCbTeppOrJPky9-632" vertex="1" connectable="0">
          <mxGeometry x="0.1262" y="1" relative="1" as="geometry">
            <mxPoint x="80" y="72" as="offset" />
          </mxGeometry>
        </mxCell>
        <mxCell id="vZlfEXrCbTeppOrJPky9-634" value="3" style="edgeLabel;html=1;align=center;verticalAlign=middle;resizable=0;points=[];fontStyle=1" parent="vZlfEXrCbTeppOrJPky9-632" vertex="1" connectable="0">
          <mxGeometry x="0.0708" relative="1" as="geometry">
            <mxPoint x="83" y="106" as="offset" />
          </mxGeometry>
        </mxCell>
        <mxCell id="vZlfEXrCbTeppOrJPky9-635" value="" style="group" parent="1" vertex="1" connectable="0">
          <mxGeometry x="1276" y="1090" width="120" height="110" as="geometry" />
        </mxCell>
        <mxCell id="vZlfEXrCbTeppOrJPky9-636" value="" style="group" parent="vZlfEXrCbTeppOrJPky9-635" vertex="1" connectable="0">
          <mxGeometry width="120" height="110" as="geometry" />
        </mxCell>
        <mxCell id="vZlfEXrCbTeppOrJPky9-637" value="" style="ellipse;whiteSpace=wrap;html=1;" parent="vZlfEXrCbTeppOrJPky9-636" vertex="1">
          <mxGeometry width="120" height="110" as="geometry" />
        </mxCell>
        <mxCell id="vZlfEXrCbTeppOrJPky9-638" value="" style="line;strokeWidth=2;html=1;rotation=-90;" parent="vZlfEXrCbTeppOrJPky9-636" vertex="1">
          <mxGeometry x="5.47" y="48.25" width="109.07" height="13.75" as="geometry" />
        </mxCell>
        <mxCell id="vZlfEXrCbTeppOrJPky9-639" value="" style="line;strokeWidth=2;html=1;" parent="vZlfEXrCbTeppOrJPky9-636" vertex="1">
          <mxGeometry x="60" y="50" width="60" height="13.75" as="geometry" />
        </mxCell>
        <mxCell id="vZlfEXrCbTeppOrJPky9-640" value="000" style="text;strokeColor=none;fillColor=none;html=1;align=center;verticalAlign=middle;whiteSpace=wrap;rounded=0;fontSize=16;" parent="vZlfEXrCbTeppOrJPky9-636" vertex="1">
          <mxGeometry x="60" y="5.0000000000000036" width="50" height="50" as="geometry" />
        </mxCell>
        <mxCell id="vZlfEXrCbTeppOrJPky9-641" value="000" style="text;strokeColor=none;fillColor=none;html=1;align=center;verticalAlign=middle;whiteSpace=wrap;rounded=0;fontSize=16;" parent="vZlfEXrCbTeppOrJPky9-636" vertex="1">
          <mxGeometry x="60" y="55" width="50" height="50" as="geometry" />
        </mxCell>
        <mxCell id="vZlfEXrCbTeppOrJPky9-642" value="PE11" style="text;strokeColor=none;fillColor=none;html=1;align=center;verticalAlign=middle;whiteSpace=wrap;rounded=0;fontSize=16;" parent="vZlfEXrCbTeppOrJPky9-636" vertex="1">
          <mxGeometry x="1.8799999999999955" y="31.72" width="50" height="50" as="geometry" />
        </mxCell>
        <mxCell id="vZlfEXrCbTeppOrJPky9-643" value="" style="endArrow=classic;html=1;rounded=0;entryX=0;entryY=0.5;entryDx=0;entryDy=0;exitX=1;exitY=0.5;exitDx=0;exitDy=0;exitPerimeter=0;" parent="1" source="vZlfEXrCbTeppOrJPky9-245" target="vZlfEXrCbTeppOrJPky9-648" edge="1">
          <mxGeometry width="50" height="50" relative="1" as="geometry">
            <mxPoint x="1117" y="665" as="sourcePoint" />
            <mxPoint x="1404" y="1349.62" as="targetPoint" />
            <Array as="points" />
          </mxGeometry>
        </mxCell>
        <mxCell id="vZlfEXrCbTeppOrJPky9-644" value="Identifikasi Stakeholder" style="edgeLabel;html=1;align=center;verticalAlign=middle;resizable=0;points=[];fontStyle=1" parent="vZlfEXrCbTeppOrJPky9-643" vertex="1" connectable="0">
          <mxGeometry x="0.1262" y="1" relative="1" as="geometry">
            <mxPoint x="-5" y="-10" as="offset" />
          </mxGeometry>
        </mxCell>
        <mxCell id="vZlfEXrCbTeppOrJPky9-645" value="3" style="edgeLabel;html=1;align=center;verticalAlign=middle;resizable=0;points=[];fontStyle=1" parent="vZlfEXrCbTeppOrJPky9-643" vertex="1" connectable="0">
          <mxGeometry x="0.0708" relative="1" as="geometry">
            <mxPoint x="-11" y="10" as="offset" />
          </mxGeometry>
        </mxCell>
        <mxCell id="vZlfEXrCbTeppOrJPky9-646" value="" style="group" parent="1" vertex="1" connectable="0">
          <mxGeometry x="1276" y="610" width="120" height="110" as="geometry" />
        </mxCell>
        <mxCell id="vZlfEXrCbTeppOrJPky9-647" value="" style="group" parent="vZlfEXrCbTeppOrJPky9-646" vertex="1" connectable="0">
          <mxGeometry width="120" height="110" as="geometry" />
        </mxCell>
        <mxCell id="vZlfEXrCbTeppOrJPky9-648" value="" style="ellipse;whiteSpace=wrap;html=1;" parent="vZlfEXrCbTeppOrJPky9-647" vertex="1">
          <mxGeometry width="120" height="110" as="geometry" />
        </mxCell>
        <mxCell id="vZlfEXrCbTeppOrJPky9-649" value="" style="line;strokeWidth=2;html=1;rotation=-90;" parent="vZlfEXrCbTeppOrJPky9-647" vertex="1">
          <mxGeometry x="5.47" y="48.25" width="109.07" height="13.75" as="geometry" />
        </mxCell>
        <mxCell id="vZlfEXrCbTeppOrJPky9-650" value="" style="line;strokeWidth=2;html=1;" parent="vZlfEXrCbTeppOrJPky9-647" vertex="1">
          <mxGeometry x="60" y="50" width="60" height="13.75" as="geometry" />
        </mxCell>
        <mxCell id="vZlfEXrCbTeppOrJPky9-651" value="000" style="text;strokeColor=none;fillColor=none;html=1;align=center;verticalAlign=middle;whiteSpace=wrap;rounded=0;fontSize=16;" parent="vZlfEXrCbTeppOrJPky9-647" vertex="1">
          <mxGeometry x="60" y="5.0000000000000036" width="50" height="50" as="geometry" />
        </mxCell>
        <mxCell id="vZlfEXrCbTeppOrJPky9-652" value="000" style="text;strokeColor=none;fillColor=none;html=1;align=center;verticalAlign=middle;whiteSpace=wrap;rounded=0;fontSize=16;" parent="vZlfEXrCbTeppOrJPky9-647" vertex="1">
          <mxGeometry x="60" y="55" width="50" height="50" as="geometry" />
        </mxCell>
        <mxCell id="vZlfEXrCbTeppOrJPky9-653" value="PE12" style="text;strokeColor=none;fillColor=none;html=1;align=center;verticalAlign=middle;whiteSpace=wrap;rounded=0;fontSize=16;" parent="vZlfEXrCbTeppOrJPky9-647" vertex="1">
          <mxGeometry x="1.8799999999999955" y="31.72" width="50" height="50" as="geometry" />
        </mxCell>
        <mxCell id="vZlfEXrCbTeppOrJPky9-654" value="" style="endArrow=classic;html=1;rounded=0;entryX=0;entryY=0.5;entryDx=0;entryDy=0;exitX=1;exitY=0.5;exitDx=0;exitDy=0;" parent="1" source="vZlfEXrCbTeppOrJPky9-243" target="vZlfEXrCbTeppOrJPky9-659" edge="1">
          <mxGeometry width="50" height="50" relative="1" as="geometry">
            <mxPoint x="1217" y="795" as="sourcePoint" />
            <mxPoint x="1414" y="1228.62" as="targetPoint" />
            <Array as="points">
              <mxPoint x="1137" y="780" />
            </Array>
          </mxGeometry>
        </mxCell>
        <mxCell id="vZlfEXrCbTeppOrJPky9-655" value="Penyusunan Tim Proyek" style="edgeLabel;html=1;align=center;verticalAlign=middle;resizable=0;points=[];fontStyle=1" parent="vZlfEXrCbTeppOrJPky9-654" vertex="1" connectable="0">
          <mxGeometry x="0.1262" y="1" relative="1" as="geometry">
            <mxPoint x="47" y="-14" as="offset" />
          </mxGeometry>
        </mxCell>
        <mxCell id="vZlfEXrCbTeppOrJPky9-656" value="5" style="edgeLabel;html=1;align=center;verticalAlign=middle;resizable=0;points=[];fontStyle=1" parent="vZlfEXrCbTeppOrJPky9-654" vertex="1" connectable="0">
          <mxGeometry x="0.0708" relative="1" as="geometry">
            <mxPoint x="55" y="15" as="offset" />
          </mxGeometry>
        </mxCell>
        <mxCell id="vZlfEXrCbTeppOrJPky9-657" value="" style="group" parent="1" vertex="1" connectable="0">
          <mxGeometry x="1276" y="724.88" width="120" height="110" as="geometry" />
        </mxCell>
        <mxCell id="vZlfEXrCbTeppOrJPky9-658" value="" style="group" parent="vZlfEXrCbTeppOrJPky9-657" vertex="1" connectable="0">
          <mxGeometry width="120" height="110" as="geometry" />
        </mxCell>
        <mxCell id="vZlfEXrCbTeppOrJPky9-659" value="" style="ellipse;whiteSpace=wrap;html=1;" parent="vZlfEXrCbTeppOrJPky9-658" vertex="1">
          <mxGeometry width="120" height="110" as="geometry" />
        </mxCell>
        <mxCell id="vZlfEXrCbTeppOrJPky9-660" value="" style="line;strokeWidth=2;html=1;rotation=-90;" parent="vZlfEXrCbTeppOrJPky9-658" vertex="1">
          <mxGeometry x="5.47" y="48.25" width="109.07" height="13.75" as="geometry" />
        </mxCell>
        <mxCell id="vZlfEXrCbTeppOrJPky9-661" value="" style="line;strokeWidth=2;html=1;" parent="vZlfEXrCbTeppOrJPky9-658" vertex="1">
          <mxGeometry x="60" y="50" width="60" height="13.75" as="geometry" />
        </mxCell>
        <mxCell id="vZlfEXrCbTeppOrJPky9-662" value="000" style="text;strokeColor=none;fillColor=none;html=1;align=center;verticalAlign=middle;whiteSpace=wrap;rounded=0;fontSize=16;" parent="vZlfEXrCbTeppOrJPky9-658" vertex="1">
          <mxGeometry x="60" y="5.0000000000000036" width="50" height="50" as="geometry" />
        </mxCell>
        <mxCell id="vZlfEXrCbTeppOrJPky9-663" value="000" style="text;strokeColor=none;fillColor=none;html=1;align=center;verticalAlign=middle;whiteSpace=wrap;rounded=0;fontSize=16;" parent="vZlfEXrCbTeppOrJPky9-658" vertex="1">
          <mxGeometry x="60" y="55" width="50" height="50" as="geometry" />
        </mxCell>
        <mxCell id="vZlfEXrCbTeppOrJPky9-664" value="PE13" style="text;strokeColor=none;fillColor=none;html=1;align=center;verticalAlign=middle;whiteSpace=wrap;rounded=0;fontSize=16;" parent="vZlfEXrCbTeppOrJPky9-658" vertex="1">
          <mxGeometry x="1.8799999999999955" y="31.72" width="50" height="50" as="geometry" />
        </mxCell>
        <mxCell id="vZlfEXrCbTeppOrJPky9-665" value="" style="endArrow=classic;html=1;rounded=0;entryX=0;entryY=0.5;entryDx=0;entryDy=0;exitX=1;exitY=0.5;exitDx=0;exitDy=0;exitPerimeter=0;" parent="1" source="vZlfEXrCbTeppOrJPky9-245" target="vZlfEXrCbTeppOrJPky9-675" edge="1">
          <mxGeometry width="50" height="50" relative="1" as="geometry">
            <mxPoint x="1087" y="665" as="sourcePoint" />
            <mxPoint x="1378" y="1182" as="targetPoint" />
            <Array as="points">
              <mxPoint x="1137" y="895" />
            </Array>
          </mxGeometry>
        </mxCell>
        <mxCell id="vZlfEXrCbTeppOrJPky9-666" value="Penyusunan Dokumen&lt;div&gt;Persetujuan&lt;/div&gt;" style="edgeLabel;html=1;align=center;verticalAlign=middle;resizable=0;points=[];fontStyle=1" parent="vZlfEXrCbTeppOrJPky9-665" vertex="1" connectable="0">
          <mxGeometry x="0.1262" y="1" relative="1" as="geometry">
            <mxPoint x="74" y="4" as="offset" />
          </mxGeometry>
        </mxCell>
        <mxCell id="vZlfEXrCbTeppOrJPky9-667" value="6" style="edgeLabel;html=1;align=center;verticalAlign=middle;resizable=0;points=[];fontStyle=1" parent="vZlfEXrCbTeppOrJPky9-665" vertex="1" connectable="0">
          <mxGeometry x="0.0708" relative="1" as="geometry">
            <mxPoint x="77" y="44" as="offset" />
          </mxGeometry>
        </mxCell>
        <mxCell id="vZlfEXrCbTeppOrJPky9-668" value="" style="group" parent="1" vertex="1" connectable="0">
          <mxGeometry x="1275" y="838.72" width="120" height="110" as="geometry" />
        </mxCell>
        <mxCell id="vZlfEXrCbTeppOrJPky9-669" value="" style="group" parent="vZlfEXrCbTeppOrJPky9-668" vertex="1" connectable="0">
          <mxGeometry width="120" height="110" as="geometry" />
        </mxCell>
        <mxCell id="vZlfEXrCbTeppOrJPky9-670" value="" style="ellipse;whiteSpace=wrap;html=1;" parent="vZlfEXrCbTeppOrJPky9-669" vertex="1">
          <mxGeometry width="120" height="110" as="geometry" />
        </mxCell>
        <mxCell id="vZlfEXrCbTeppOrJPky9-671" value="" style="line;strokeWidth=2;html=1;rotation=-90;" parent="vZlfEXrCbTeppOrJPky9-669" vertex="1">
          <mxGeometry x="5.47" y="48.25" width="109.07" height="13.75" as="geometry" />
        </mxCell>
        <mxCell id="vZlfEXrCbTeppOrJPky9-672" value="" style="line;strokeWidth=2;html=1;" parent="vZlfEXrCbTeppOrJPky9-669" vertex="1">
          <mxGeometry x="60" y="50" width="60" height="13.75" as="geometry" />
        </mxCell>
        <mxCell id="vZlfEXrCbTeppOrJPky9-673" value="000" style="text;strokeColor=none;fillColor=none;html=1;align=center;verticalAlign=middle;whiteSpace=wrap;rounded=0;fontSize=16;" parent="vZlfEXrCbTeppOrJPky9-669" vertex="1">
          <mxGeometry x="60" y="5.0000000000000036" width="50" height="50" as="geometry" />
        </mxCell>
        <mxCell id="vZlfEXrCbTeppOrJPky9-674" value="000" style="text;strokeColor=none;fillColor=none;html=1;align=center;verticalAlign=middle;whiteSpace=wrap;rounded=0;fontSize=16;" parent="vZlfEXrCbTeppOrJPky9-669" vertex="1">
          <mxGeometry x="60" y="55" width="50" height="50" as="geometry" />
        </mxCell>
        <mxCell id="vZlfEXrCbTeppOrJPky9-675" value="PE14" style="text;strokeColor=none;fillColor=none;html=1;align=center;verticalAlign=middle;whiteSpace=wrap;rounded=0;fontSize=16;" parent="vZlfEXrCbTeppOrJPky9-669" vertex="1">
          <mxGeometry x="1.8799999999999955" y="31.72" width="50" height="50" as="geometry" />
        </mxCell>
        <mxCell id="vZlfEXrCbTeppOrJPky9-676" value="" style="endArrow=classic;html=1;rounded=0;entryX=0;entryY=0.5;entryDx=0;entryDy=0;exitX=1;exitY=0.5;exitDx=0;exitDy=0;exitPerimeter=0;" parent="1" source="vZlfEXrCbTeppOrJPky9-245" target="vZlfEXrCbTeppOrJPky9-681" edge="1">
          <mxGeometry width="50" height="50" relative="1" as="geometry">
            <mxPoint x="1117" y="755" as="sourcePoint" />
            <mxPoint x="1434" y="986.62" as="targetPoint" />
            <Array as="points">
              <mxPoint x="1137" y="1010" />
            </Array>
          </mxGeometry>
        </mxCell>
        <mxCell id="vZlfEXrCbTeppOrJPky9-677" value="Pembuatan Struktur&lt;div&gt;Organisasi&lt;/div&gt;" style="edgeLabel;html=1;align=center;verticalAlign=middle;resizable=0;points=[];fontStyle=1" parent="vZlfEXrCbTeppOrJPky9-676" vertex="1" connectable="0">
          <mxGeometry x="0.1262" y="1" relative="1" as="geometry">
            <mxPoint x="79" y="59" as="offset" />
          </mxGeometry>
        </mxCell>
        <mxCell id="vZlfEXrCbTeppOrJPky9-678" value="4" style="edgeLabel;html=1;align=center;verticalAlign=middle;resizable=0;points=[];fontStyle=1" parent="vZlfEXrCbTeppOrJPky9-676" vertex="1" connectable="0">
          <mxGeometry x="0.0708" relative="1" as="geometry">
            <mxPoint x="82" y="102" as="offset" />
          </mxGeometry>
        </mxCell>
        <mxCell id="vZlfEXrCbTeppOrJPky9-680" value="" style="group" parent="1" vertex="1" connectable="0">
          <mxGeometry x="1276.01" y="955" width="120" height="110" as="geometry" />
        </mxCell>
        <mxCell id="vZlfEXrCbTeppOrJPky9-681" value="" style="ellipse;whiteSpace=wrap;html=1;" parent="vZlfEXrCbTeppOrJPky9-680" vertex="1">
          <mxGeometry width="120" height="110" as="geometry" />
        </mxCell>
        <mxCell id="vZlfEXrCbTeppOrJPky9-682" value="" style="line;strokeWidth=2;html=1;rotation=-90;" parent="vZlfEXrCbTeppOrJPky9-680" vertex="1">
          <mxGeometry x="5.47" y="48.25" width="109.07" height="13.75" as="geometry" />
        </mxCell>
        <mxCell id="vZlfEXrCbTeppOrJPky9-683" value="" style="line;strokeWidth=2;html=1;" parent="vZlfEXrCbTeppOrJPky9-680" vertex="1">
          <mxGeometry x="60" y="50" width="60" height="13.75" as="geometry" />
        </mxCell>
        <mxCell id="vZlfEXrCbTeppOrJPky9-684" value="000" style="text;strokeColor=none;fillColor=none;html=1;align=center;verticalAlign=middle;whiteSpace=wrap;rounded=0;fontSize=16;" parent="vZlfEXrCbTeppOrJPky9-680" vertex="1">
          <mxGeometry x="60" y="5.0000000000000036" width="50" height="50" as="geometry" />
        </mxCell>
        <mxCell id="vZlfEXrCbTeppOrJPky9-685" value="000" style="text;strokeColor=none;fillColor=none;html=1;align=center;verticalAlign=middle;whiteSpace=wrap;rounded=0;fontSize=16;" parent="vZlfEXrCbTeppOrJPky9-680" vertex="1">
          <mxGeometry x="60" y="55" width="50" height="50" as="geometry" />
        </mxCell>
        <mxCell id="vZlfEXrCbTeppOrJPky9-686" value="PE15" style="text;strokeColor=none;fillColor=none;html=1;align=center;verticalAlign=middle;whiteSpace=wrap;rounded=0;fontSize=16;" parent="vZlfEXrCbTeppOrJPky9-680" vertex="1">
          <mxGeometry x="1.8799999999999955" y="31.72" width="50" height="50" as="geometry" />
        </mxCell>
        <mxCell id="vZlfEXrCbTeppOrJPky9-429" value="" style="group" parent="1" vertex="1" connectable="0">
          <mxGeometry x="1277" y="137" width="120" height="110" as="geometry" />
        </mxCell>
        <mxCell id="vZlfEXrCbTeppOrJPky9-430" value="" style="ellipse;whiteSpace=wrap;html=1;" parent="vZlfEXrCbTeppOrJPky9-429" vertex="1">
          <mxGeometry width="120" height="110" as="geometry" />
        </mxCell>
        <mxCell id="vZlfEXrCbTeppOrJPky9-431" value="" style="line;strokeWidth=2;html=1;rotation=-90;" parent="vZlfEXrCbTeppOrJPky9-429" vertex="1">
          <mxGeometry x="5.47" y="48.25" width="109.07" height="13.75" as="geometry" />
        </mxCell>
        <mxCell id="vZlfEXrCbTeppOrJPky9-432" value="" style="line;strokeWidth=2;html=1;" parent="vZlfEXrCbTeppOrJPky9-429" vertex="1">
          <mxGeometry x="60" y="50" width="60" height="13.75" as="geometry" />
        </mxCell>
        <mxCell id="vZlfEXrCbTeppOrJPky9-433" value="000" style="text;strokeColor=none;fillColor=none;html=1;align=center;verticalAlign=middle;whiteSpace=wrap;rounded=0;fontSize=16;" parent="vZlfEXrCbTeppOrJPky9-429" vertex="1">
          <mxGeometry x="60" y="5.0000000000000036" width="50" height="50" as="geometry" />
        </mxCell>
        <mxCell id="vZlfEXrCbTeppOrJPky9-434" value="000" style="text;strokeColor=none;fillColor=none;html=1;align=center;verticalAlign=middle;whiteSpace=wrap;rounded=0;fontSize=16;" parent="vZlfEXrCbTeppOrJPky9-429" vertex="1">
          <mxGeometry x="60" y="55" width="50" height="50" as="geometry" />
        </mxCell>
        <mxCell id="vZlfEXrCbTeppOrJPky9-435" value="PE19" style="text;strokeColor=none;fillColor=none;html=1;align=center;verticalAlign=middle;whiteSpace=wrap;rounded=0;fontSize=16;" parent="vZlfEXrCbTeppOrJPky9-429" vertex="1">
          <mxGeometry x="1.8799999999999955" y="31.72" width="50" height="50" as="geometry" />
        </mxCell>
        <mxCell id="vZlfEXrCbTeppOrJPky9-352" value="" style="group" parent="1" vertex="1" connectable="0">
          <mxGeometry x="1277" y="255" width="120" height="110" as="geometry" />
        </mxCell>
        <mxCell id="vZlfEXrCbTeppOrJPky9-353" value="" style="ellipse;whiteSpace=wrap;html=1;" parent="vZlfEXrCbTeppOrJPky9-352" vertex="1">
          <mxGeometry width="120" height="110" as="geometry" />
        </mxCell>
        <mxCell id="vZlfEXrCbTeppOrJPky9-354" value="" style="line;strokeWidth=2;html=1;rotation=-90;" parent="vZlfEXrCbTeppOrJPky9-352" vertex="1">
          <mxGeometry x="5.47" y="48.25" width="109.07" height="13.75" as="geometry" />
        </mxCell>
        <mxCell id="vZlfEXrCbTeppOrJPky9-355" value="" style="line;strokeWidth=2;html=1;" parent="vZlfEXrCbTeppOrJPky9-352" vertex="1">
          <mxGeometry x="60" y="50" width="60" height="13.75" as="geometry" />
        </mxCell>
        <mxCell id="vZlfEXrCbTeppOrJPky9-356" value="000" style="text;strokeColor=none;fillColor=none;html=1;align=center;verticalAlign=middle;whiteSpace=wrap;rounded=0;fontSize=16;" parent="vZlfEXrCbTeppOrJPky9-352" vertex="1">
          <mxGeometry x="60" y="5.0000000000000036" width="50" height="50" as="geometry" />
        </mxCell>
        <mxCell id="vZlfEXrCbTeppOrJPky9-357" value="000" style="text;strokeColor=none;fillColor=none;html=1;align=center;verticalAlign=middle;whiteSpace=wrap;rounded=0;fontSize=16;" parent="vZlfEXrCbTeppOrJPky9-352" vertex="1">
          <mxGeometry x="60" y="55" width="50" height="50" as="geometry" />
        </mxCell>
        <mxCell id="vZlfEXrCbTeppOrJPky9-358" value="PE20" style="text;strokeColor=none;fillColor=none;html=1;align=center;verticalAlign=middle;whiteSpace=wrap;rounded=0;fontSize=16;" parent="vZlfEXrCbTeppOrJPky9-352" vertex="1">
          <mxGeometry x="1.8799999999999955" y="31.72" width="50" height="50" as="geometry" />
        </mxCell>
        <mxCell id="vZlfEXrCbTeppOrJPky9-341" value="" style="group" parent="1" vertex="1" connectable="0">
          <mxGeometry x="1798" y="209" width="120" height="110" as="geometry" />
        </mxCell>
        <mxCell id="vZlfEXrCbTeppOrJPky9-342" value="" style="ellipse;whiteSpace=wrap;html=1;" parent="vZlfEXrCbTeppOrJPky9-341" vertex="1">
          <mxGeometry width="120" height="110" as="geometry" />
        </mxCell>
        <mxCell id="vZlfEXrCbTeppOrJPky9-343" value="" style="line;strokeWidth=2;html=1;rotation=-90;" parent="vZlfEXrCbTeppOrJPky9-341" vertex="1">
          <mxGeometry x="5.47" y="48.25" width="109.07" height="13.75" as="geometry" />
        </mxCell>
        <mxCell id="vZlfEXrCbTeppOrJPky9-344" value="" style="line;strokeWidth=2;html=1;" parent="vZlfEXrCbTeppOrJPky9-341" vertex="1">
          <mxGeometry x="60" y="50" width="60" height="13.75" as="geometry" />
        </mxCell>
        <mxCell id="vZlfEXrCbTeppOrJPky9-345" value="000" style="text;strokeColor=none;fillColor=none;html=1;align=center;verticalAlign=middle;whiteSpace=wrap;rounded=0;fontSize=16;" parent="vZlfEXrCbTeppOrJPky9-341" vertex="1">
          <mxGeometry x="60" y="5.0000000000000036" width="50" height="50" as="geometry" />
        </mxCell>
        <mxCell id="vZlfEXrCbTeppOrJPky9-346" value="000" style="text;strokeColor=none;fillColor=none;html=1;align=center;verticalAlign=middle;whiteSpace=wrap;rounded=0;fontSize=16;" parent="vZlfEXrCbTeppOrJPky9-341" vertex="1">
          <mxGeometry x="60" y="55" width="50" height="50" as="geometry" />
        </mxCell>
        <mxCell id="vZlfEXrCbTeppOrJPky9-347" value="PE21" style="text;strokeColor=none;fillColor=none;html=1;align=center;verticalAlign=middle;whiteSpace=wrap;rounded=0;fontSize=16;" parent="vZlfEXrCbTeppOrJPky9-341" vertex="1">
          <mxGeometry x="1.8799999999999955" y="31.72" width="50" height="50" as="geometry" />
        </mxCell>
        <mxCell id="vZlfEXrCbTeppOrJPky9-688" value="" style="endArrow=none;dashed=1;html=1;rounded=0;exitX=1;exitY=0.5;exitDx=0;exitDy=0;exitPerimeter=0;entryX=0;entryY=0.5;entryDx=0;entryDy=0;" parent="1" source="vZlfEXrCbTeppOrJPky9-98" target="vZlfEXrCbTeppOrJPky9-259" edge="1">
          <mxGeometry width="50" height="50" relative="1" as="geometry">
            <mxPoint x="1247" y="854" as="sourcePoint" />
            <mxPoint x="1297" y="804" as="targetPoint" />
          </mxGeometry>
        </mxCell>
        <mxCell id="vZlfEXrCbTeppOrJPky9-689" value="" style="endArrow=none;dashed=1;html=1;rounded=0;exitX=1;exitY=0.5;exitDx=0;exitDy=0;exitPerimeter=0;entryX=0;entryY=0.5;entryDx=0;entryDy=0;" parent="1" source="vZlfEXrCbTeppOrJPky9-355" target="vZlfEXrCbTeppOrJPky9-342" edge="1">
          <mxGeometry width="50" height="50" relative="1" as="geometry">
            <mxPoint x="1237" y="574" as="sourcePoint" />
            <mxPoint x="1507" y="434" as="targetPoint" />
          </mxGeometry>
        </mxCell>
        <mxCell id="vZlfEXrCbTeppOrJPky9-690" value="" style="endArrow=none;dashed=1;html=1;rounded=0;exitX=1;exitY=0.5;exitDx=0;exitDy=0;entryX=0;entryY=0.5;entryDx=0;entryDy=0;" parent="1" source="vZlfEXrCbTeppOrJPky9-430" target="vZlfEXrCbTeppOrJPky9-342" edge="1">
          <mxGeometry width="50" height="50" relative="1" as="geometry">
            <mxPoint x="1437" y="274" as="sourcePoint" />
            <mxPoint x="1507" y="394" as="targetPoint" />
          </mxGeometry>
        </mxCell>
        <mxCell id="vZlfEXrCbTeppOrJPky9-691" value="" style="endArrow=none;dashed=1;html=1;rounded=0;entryX=1;entryY=0.5;entryDx=0;entryDy=0;exitX=0;exitY=0.5;exitDx=0;exitDy=0;" parent="1" source="vZlfEXrCbTeppOrJPky9-347" target="vZlfEXrCbTeppOrJPky9-648" edge="1">
          <mxGeometry width="50" height="50" relative="1" as="geometry">
            <mxPoint x="1687" y="744" as="sourcePoint" />
            <mxPoint x="1737" y="694" as="targetPoint" />
          </mxGeometry>
        </mxCell>
        <mxCell id="vZlfEXrCbTeppOrJPky9-692" value="" style="endArrow=none;dashed=1;html=1;rounded=0;entryX=1;entryY=0.5;entryDx=0;entryDy=0;exitX=0;exitY=0.5;exitDx=0;exitDy=0;" parent="1" source="vZlfEXrCbTeppOrJPky9-347" target="vZlfEXrCbTeppOrJPky9-659" edge="1">
          <mxGeometry width="50" height="50" relative="1" as="geometry">
            <mxPoint x="1697" y="754" as="sourcePoint" />
            <mxPoint x="1406" y="675" as="targetPoint" />
          </mxGeometry>
        </mxCell>
        <mxCell id="vZlfEXrCbTeppOrJPky9-694" value="" style="endArrow=none;dashed=1;html=1;rounded=0;entryX=1;entryY=0.5;entryDx=0;entryDy=0;entryPerimeter=0;exitX=0;exitY=0.5;exitDx=0;exitDy=0;" parent="1" source="vZlfEXrCbTeppOrJPky9-347" target="vZlfEXrCbTeppOrJPky9-683" edge="1">
          <mxGeometry width="50" height="50" relative="1" as="geometry">
            <mxPoint x="1717" y="774" as="sourcePoint" />
            <mxPoint x="1426" y="695" as="targetPoint" />
          </mxGeometry>
        </mxCell>
        <mxCell id="vZlfEXrCbTeppOrJPky9-695" value="" style="endArrow=none;dashed=1;html=1;rounded=0;entryX=1;entryY=0.5;entryDx=0;entryDy=0;exitX=0;exitY=0.5;exitDx=0;exitDy=0;" parent="1" source="vZlfEXrCbTeppOrJPky9-347" target="vZlfEXrCbTeppOrJPky9-637" edge="1">
          <mxGeometry width="50" height="50" relative="1" as="geometry">
            <mxPoint x="1727" y="784" as="sourcePoint" />
            <mxPoint x="1436" y="705" as="targetPoint" />
          </mxGeometry>
        </mxCell>
        <mxCell id="vZlfEXrCbTeppOrJPky9-696" value="" style="endArrow=none;dashed=1;html=1;rounded=0;entryX=0;entryY=0.5;entryDx=0;entryDy=0;exitX=1;exitY=0.5;exitDx=0;exitDy=0;exitPerimeter=0;" parent="1" source="vZlfEXrCbTeppOrJPky9-289" target="vZlfEXrCbTeppOrJPky9-347" edge="1">
          <mxGeometry width="50" height="50" relative="1" as="geometry">
            <mxPoint x="1457" y="714" as="sourcePoint" />
            <mxPoint x="1507" y="664" as="targetPoint" />
          </mxGeometry>
        </mxCell>
        <mxCell id="vZlfEXrCbTeppOrJPky9-698" value="" style="endArrow=none;dashed=1;html=1;rounded=0;exitX=1;exitY=0.5;exitDx=0;exitDy=0;exitPerimeter=0;entryX=0;entryY=0.5;entryDx=0;entryDy=0;" parent="1" source="vZlfEXrCbTeppOrJPky9-322" target="vZlfEXrCbTeppOrJPky9-336" edge="1">
          <mxGeometry width="50" height="50" relative="1" as="geometry">
            <mxPoint x="2107" y="634" as="sourcePoint" />
            <mxPoint x="2157" y="584" as="targetPoint" />
          </mxGeometry>
        </mxCell>
        <mxCell id="vZlfEXrCbTeppOrJPky9-699" value="" style="endArrow=none;dashed=1;html=1;rounded=0;exitX=1;exitY=0.5;exitDx=0;exitDy=0;exitPerimeter=0;entryX=0;entryY=0.5;entryDx=0;entryDy=0;" parent="1" source="vZlfEXrCbTeppOrJPky9-311" target="vZlfEXrCbTeppOrJPky9-336" edge="1">
          <mxGeometry width="50" height="50" relative="1" as="geometry">
            <mxPoint x="1928" y="560" as="sourcePoint" />
            <mxPoint x="2204" y="441" as="targetPoint" />
          </mxGeometry>
        </mxCell>
        <mxCell id="vZlfEXrCbTeppOrJPky9-700" value="" style="endArrow=none;dashed=1;html=1;rounded=0;exitX=1;exitY=0.5;exitDx=0;exitDy=0;entryX=-0.034;entryY=0.615;entryDx=0;entryDy=0;entryPerimeter=0;" parent="1" source="vZlfEXrCbTeppOrJPky9-276" target="vZlfEXrCbTeppOrJPky9-336" edge="1">
          <mxGeometry width="50" height="50" relative="1" as="geometry">
            <mxPoint x="1938" y="570" as="sourcePoint" />
            <mxPoint x="2214" y="451" as="targetPoint" />
          </mxGeometry>
        </mxCell>
        <mxCell id="vZlfEXrCbTeppOrJPky9-702" value="" style="endArrow=none;dashed=1;html=1;rounded=0;exitX=1;exitY=0.5;exitDx=0;exitDy=0;entryX=0;entryY=0.5;entryDx=0;entryDy=0;" parent="1" source="vZlfEXrCbTeppOrJPky9-419" target="vZlfEXrCbTeppOrJPky9-514" edge="1">
          <mxGeometry width="50" height="50" relative="1" as="geometry">
            <mxPoint x="3267" y="134" as="sourcePoint" />
            <mxPoint x="3317" y="84" as="targetPoint" />
          </mxGeometry>
        </mxCell>
        <mxCell id="vZlfEXrCbTeppOrJPky9-705" value="" style="endArrow=none;dashed=1;html=1;rounded=0;exitX=1;exitY=0.5;exitDx=0;exitDy=0;exitPerimeter=0;" parent="1" source="vZlfEXrCbTeppOrJPky9-410" edge="1">
          <mxGeometry width="50" height="50" relative="1" as="geometry">
            <mxPoint x="2714" y="-140" as="sourcePoint" />
            <mxPoint x="2967" y="134" as="targetPoint" />
          </mxGeometry>
        </mxCell>
        <mxCell id="vZlfEXrCbTeppOrJPky9-706" value="" style="endArrow=none;dashed=1;html=1;rounded=0;exitX=1;exitY=0;exitDx=0;exitDy=0;" parent="1" source="vZlfEXrCbTeppOrJPky9-401" edge="1">
          <mxGeometry width="50" height="50" relative="1" as="geometry">
            <mxPoint x="2714" y="-17" as="sourcePoint" />
            <mxPoint x="2967" y="134" as="targetPoint" />
          </mxGeometry>
        </mxCell>
        <mxCell id="vZlfEXrCbTeppOrJPky9-707" value="" style="endArrow=none;dashed=1;html=1;rounded=0;exitX=1;exitY=0.5;exitDx=0;exitDy=0;exitPerimeter=0;" parent="1" source="vZlfEXrCbTeppOrJPky9-388" edge="1">
          <mxGeometry width="50" height="50" relative="1" as="geometry">
            <mxPoint x="2705" y="102" as="sourcePoint" />
            <mxPoint x="2967" y="134" as="targetPoint" />
          </mxGeometry>
        </mxCell>
        <mxCell id="vZlfEXrCbTeppOrJPky9-708" value="" style="endArrow=none;dashed=1;html=1;rounded=0;exitX=1;exitY=0.5;exitDx=0;exitDy=0;entryX=0;entryY=0.5;entryDx=0;entryDy=0;" parent="1" source="vZlfEXrCbTeppOrJPky9-375" target="vZlfEXrCbTeppOrJPky9-514" edge="1">
          <mxGeometry width="50" height="50" relative="1" as="geometry">
            <mxPoint x="2715" y="222" as="sourcePoint" />
            <mxPoint x="2967" y="134" as="targetPoint" />
          </mxGeometry>
        </mxCell>
        <mxCell id="vZlfEXrCbTeppOrJPky9-709" value="" style="endArrow=none;dashed=1;html=1;rounded=0;entryX=1;entryY=0.5;entryDx=0;entryDy=0;exitX=0;exitY=0.5;exitDx=0;exitDy=0;" parent="1" source="vZlfEXrCbTeppOrJPky9-125" target="vZlfEXrCbTeppOrJPky9-509" edge="1">
          <mxGeometry width="50" height="50" relative="1" as="geometry">
            <mxPoint x="3297" y="434" as="sourcePoint" />
            <mxPoint x="2985" y="148" as="targetPoint" />
          </mxGeometry>
        </mxCell>
        <mxCell id="vZlfEXrCbTeppOrJPky9-710" value="" style="endArrow=none;dashed=1;html=1;rounded=0;entryX=1;entryY=0.5;entryDx=0;entryDy=0;entryPerimeter=0;" parent="1" target="vZlfEXrCbTeppOrJPky9-500" edge="1">
          <mxGeometry width="50" height="50" relative="1" as="geometry">
            <mxPoint x="3357" y="794" as="sourcePoint" />
            <mxPoint x="3103" y="147" as="targetPoint" />
          </mxGeometry>
        </mxCell>
        <mxCell id="vZlfEXrCbTeppOrJPky9-711" value="" style="endArrow=none;dashed=1;html=1;rounded=0;entryX=1;entryY=0.5;entryDx=0;entryDy=0;entryPerimeter=0;exitX=0;exitY=0.5;exitDx=0;exitDy=0;" parent="1" source="vZlfEXrCbTeppOrJPky9-125" target="vZlfEXrCbTeppOrJPky9-489" edge="1">
          <mxGeometry width="50" height="50" relative="1" as="geometry">
            <mxPoint x="3367" y="804" as="sourcePoint" />
            <mxPoint x="3103" y="274" as="targetPoint" />
          </mxGeometry>
        </mxCell>
        <mxCell id="vZlfEXrCbTeppOrJPky9-712" value="" style="endArrow=none;dashed=1;html=1;rounded=0;entryX=1;entryY=0.5;entryDx=0;entryDy=0;" parent="1" target="vZlfEXrCbTeppOrJPky9-476" edge="1">
          <mxGeometry width="50" height="50" relative="1" as="geometry">
            <mxPoint x="3347" y="794" as="sourcePoint" />
            <mxPoint x="3103" y="402" as="targetPoint" />
          </mxGeometry>
        </mxCell>
        <mxCell id="vZlfEXrCbTeppOrJPky9-713" value="" style="endArrow=none;dashed=1;html=1;rounded=0;entryX=1;entryY=0;entryDx=0;entryDy=0;" parent="1" target="vZlfEXrCbTeppOrJPky9-469" edge="1">
          <mxGeometry width="50" height="50" relative="1" as="geometry">
            <mxPoint x="3347" y="794" as="sourcePoint" />
            <mxPoint x="3102" y="522" as="targetPoint" />
          </mxGeometry>
        </mxCell>
        <mxCell id="vZlfEXrCbTeppOrJPky9-714" value="" style="endArrow=none;dashed=1;html=1;rounded=0;entryX=1;entryY=0.5;entryDx=0;entryDy=0;entryPerimeter=0;" parent="1" target="vZlfEXrCbTeppOrJPky9-456" edge="1">
          <mxGeometry width="50" height="50" relative="1" as="geometry">
            <mxPoint x="3347" y="794" as="sourcePoint" />
            <mxPoint x="3092" y="652" as="targetPoint" />
          </mxGeometry>
        </mxCell>
      </root>
    </mxGraphModel>
  </diagram>
</mxfile>
